<?xml version="1.0" encoding="UTF-8" standalone="no"?> <!-- Created with Vectornator for iOS (http://vectornator.io/) --><!DOCTYPE svg PUBLIC "-//W3C//DTD SVG 1.1//EN" "http://www.w3.org/Graphics/SVG/1.1/DTD/svg11.dtd">
<svg height="100%" style="fill-rule:nonzero;clip-rule:evenodd;stroke-linecap:round;stroke-linejoin:round;" xmlns:xlink="http://www.w3.org/1999/xlink" xmlns="http://www.w3.org/2000/svg" xml:space="preserve" width="100%" xmlns:vectornator="http://vectornator.io" version="1.1" viewBox="0 0 322.68 322.549">
<metadata>
<vectornator:setting key="DimensionsVisible" value="1"/>
<vectornator:setting key="PencilOnly" value="0"/>
<vectornator:setting key="SnapToPoints" value="0"/>
<vectornator:setting key="OutlineMode" value="0"/>
<vectornator:setting key="CMYKEnabledKey" value="0"/>
<vectornator:setting key="RulersVisible" value="1"/>
<vectornator:setting key="SnapToEdges" value="0"/>
<vectornator:setting key="GuidesVisible" value="1"/>
<vectornator:setting key="DisplayWhiteBackground" value="0"/>
<vectornator:setting key="doHistoryDisabled" value="0"/>
<vectornator:setting key="SnapToGuides" value="1"/>
<vectornator:setting key="TimeLapseWatermarkDisabled" value="0"/>
<vectornator:setting key="Units" value="Points"/>
<vectornator:setting key="DynamicGuides" value="0"/>
<vectornator:setting key="IsolateActiveLayer" value="0"/>
<vectornator:setting key="SnapToGrid" value="0"/>
</metadata>
<defs/>
<g id="Untitled" vectornator:layerName="Untitled">
<path d="M18.6674+138.763L18.6674+147.157L133.871+147.157L136.455+138.763C136.455+138.763+18.6674+138.763+18.6674+138.763ZM18.6674+151.085L18.6674+159.478L130.102+159.478L132.686+151.085C132.686+151.085+18.6674+151.085+18.6674+151.085ZM306.51+167.259L306.51+163.301L275.961+163.301L275.961+164.757C275.961+167.198+275.763+169.523+275.387+171.695L306.263+171.695C306.381+170.251+306.51+168.799+306.51+167.259M275.961+159.443L306.51+159.443L306.51+151.049L275.961+151.049L275.961+159.443ZM275.961+147.192L306.51+147.192L306.51+138.797L275.961+138.797L275.961+147.192ZM275.961+134.94L306.51+134.94L306.51+126.545L275.961+126.545L275.961+134.94ZM275.961+122.688L306.51+122.688L306.51+114.291L275.961+114.291L275.961+122.688ZM275.961+110.434L306.51+110.434L306.51+102.039L275.961+102.039L275.961+110.434ZM275.961+98.1861L306.51+98.1861L306.51+89.7895L275.961+89.7895L275.961+98.1861ZM305.77+175.549L274.397+175.549C273.241+178.966+271.382+181.834+268.655+183.947L303.532+183.947C304.539+181.365+305.262+178.544+305.77+175.549M301.8+187.804L207.721+187.804C209.358+190.941+211.384+193.723+213.682+196.201L295.833+196.201C298.135+193.723+300.165+190.941+301.8+187.804M205.987+183.945L240.829+183.945C238.115+181.834+236.274+178.966+235.118+175.549L203.755+175.549C204.257+178.543+204.982+181.363+205.987+183.945M203.256+171.697L234.134+171.697C233.746+169.525+233.56+167.202+233.56+164.755L233.56+163.303L203.011+163.303L203.011+167.257C203.011+168.8+203.128+170.249+203.256+171.697M203.011+159.443L233.558+159.443L233.558+151.049L203.011+151.049L203.011+159.443ZM203.011+147.192L233.558+147.192L233.558+138.797L203.011+138.797L203.011+147.192ZM203.011+134.94L233.558+134.94L233.558+126.545L203.011+126.545L203.011+134.94ZM203.011+122.688L233.558+122.688L233.558+114.291L203.011+114.291L203.011+122.688ZM203.011+110.434L233.558+110.434L233.558+102.039L203.011+102.039L203.011+110.434ZM203.011+98.1861L233.558+98.1861L233.558+89.7895L203.011+89.7895L203.011+98.1861ZM204.298+208.453L201.04+200.056L168.752+200.056L171.527+208.453C171.527+208.453+204.298+208.453+204.298+208.453ZM167.571+196.201L199.545+196.201L196.281+187.804L164.756+187.804C164.756+187.804+167.571+196.201+167.571+196.201ZM90.8731+183.945L194.782+183.945L191.52+175.549L94.0587+175.549C94.0587+175.549+90.8731+183.945+90.8731+183.945ZM95.5242+171.697L190.025+171.697L186.763+163.303L98.7157+163.303C98.7157+163.303+95.5242+171.697+95.5242+171.697ZM155.43+159.443L185.264+159.443L182.002+151.049L152.844+151.049C152.844+151.049+155.43+159.443+155.43+159.443ZM151.659+147.192L180.508+147.192L177.247+138.797L149.076+138.797C149.076+138.797+151.659+147.192+151.659+147.192ZM147.889+134.94L175.749+134.94L172.487+126.545L145.307+126.545C145.307+126.545+147.889+134.94+147.889+134.94ZM144.118+122.688L170.99+122.688L167.728+114.291L117.324+114.291L114.134+122.688L141.408+122.688L142.592+118.84L142.934+118.84C142.934+118.84+144.118+122.688+144.118+122.688ZM118.789+110.434L166.231+110.434L162.969+102.039L121.977+102.039C121.977+102.039+118.789+110.434+118.789+110.434ZM123.441+98.1861L161.474+98.1861L158.212+89.7895L126.63+89.7895C126.63+89.7895+123.441+98.1861+123.441+98.1861ZM140.223+126.545L112.671+126.545L109.483+134.94L137.635+134.94C137.635+134.94+140.223+126.545+140.223+126.545ZM18.6655+110.434L112.04+110.434L112.04+102.039L18.6655+102.039L18.6655+110.434ZM18.6655+98.1861L112.04+98.1861L112.04+89.7895L18.6655+89.7895L18.6655+98.1861ZM49.2169+114.291L18.6655+114.291L18.6655+122.688L49.2169+122.688L49.2169+114.291ZM49.2169+126.545L18.6655+126.545L18.6655+134.94L49.2169+134.94L49.2169+126.545ZM49.2169+163.302L18.6655+163.302L18.6655+171.697L49.2169+171.697L49.2169+163.302ZM49.2169+175.549L18.6655+175.549L18.6655+183.945L49.2169+183.945L49.2169+175.549ZM49.2169+187.804L18.6655+187.804L18.6655+196.201L49.2169+196.201L49.2169+187.804ZM49.2169+200.058L18.6655+200.058L18.6655+208.455L49.2169+208.455L49.2169+200.058ZM84.7565+200.058L81.5689+208.455L114.17+208.455L116.946+200.058C116.946+200.058+84.7565+200.058+84.7565+200.058ZM86.222+196.203L118.217+196.203L118.257+196.05L118.159+196.05L120.807+187.808L89.386+187.808L86.2004+196.205L86.222+196.203ZM291.664+200.058L217.836+200.058C222.373+203.755+227.622+206.528+233.18+208.455L276.278+208.455C281.854+206.528+287.116+203.755+291.662+200.058" opacity="1" fill="#074777"/>
</g>
</svg>
