<?xml version="1.0" encoding="UTF-8" standalone="no"?> <!-- Created with Vectornator for iOS (http://vectornator.io/) --><!DOCTYPE svg PUBLIC "-//W3C//DTD SVG 1.1//EN" "http://www.w3.org/Graphics/SVG/1.1/DTD/svg11.dtd">
<svg height="100%" style="fill-rule:nonzero;clip-rule:evenodd;stroke-linecap:round;stroke-linejoin:round;" xmlns:xlink="http://www.w3.org/1999/xlink" xmlns="http://www.w3.org/2000/svg" xml:space="preserve" width="100%" xmlns:vectornator="http://vectornator.io" version="1.1" viewBox="0 0 1122.52 1122.65">
<metadata>
<vectornator:setting key="DimensionsVisible" value="1"/>
<vectornator:setting key="PencilOnly" value="0"/>
<vectornator:setting key="SnapToPoints" value="0"/>
<vectornator:setting key="OutlineMode" value="0"/>
<vectornator:setting key="CMYKEnabledKey" value="0"/>
<vectornator:setting key="RulersVisible" value="1"/>
<vectornator:setting key="SnapToEdges" value="0"/>
<vectornator:setting key="GuidesVisible" value="1"/>
<vectornator:setting key="DisplayWhiteBackground" value="0"/>
<vectornator:setting key="doHistoryDisabled" value="0"/>
<vectornator:setting key="SnapToGuides" value="1"/>
<vectornator:setting key="TimeLapseWatermarkDisabled" value="0"/>
<vectornator:setting key="Units" value="Points"/>
<vectornator:setting key="DynamicGuides" value="0"/>
<vectornator:setting key="IsolateActiveLayer" value="0"/>
<vectornator:setting key="SnapToGrid" value="0"/>
</metadata>
<defs>
<path d="M38.6115+35.5315L1079.06+35.5315L1079.06+1086.7L38.6115+1086.7L38.6115+35.5315Z" id="Mask"/>
</defs>
<g id="g10" vectornator:layerName="g10">
<g opacity="1" vectornator:mask="#Mask">
<clipPath id="ClipPath">
<use xlink:href="#Mask" fill="none" overflow="visible"/>
</clipPath>
<g clip-path="url(#ClipPath)">
<g opacity="1">
<path d="M1748.3+744.549C1748.3+736.468+1742.8+730.488+1731.56+728.158L1731.56+722.929C1737.78+722.929+1758.51+723.728+1764.34+723.728C1769.39+723.728+1789.46+722.929+1795.71+722.929L1795.71+728.158C1785.27+730.107+1779.79+736.007+1779.79+744.549L1779.79+847.139C1779.79+879.626+1798.42+897.989+1837.39+897.989C1870.97+897.989+1897.1+883.552+1897.1+849.554L1897.1+744.15C1897.1+736.53+1892.1+730.488+1879.52+728.158L1879.52+722.929C1884.1+722.929+1901.24+723.728+1907.09+723.728C1912.09+723.728+1930.08+722.929+1934.68+722.929L1934.68+728.158C1922.55+730.93+1917.15+736.13+1917.15+744.15L1917.15+843.902C1917.15+888.672+1889.95+914.385+1831.26+914.385C1776.62+914.385+1748.3+890.602+1748.3+848.541L1748.3+744.549Z" opacity="1" fill="#1d1d1b"/>
<path d="M1982.69+906.342C1995.4+904.075+2000.42+897.909+2000.42+890.351L2000.42+748.557C2000.42+736.53+1993.73+731.12+1982.33+728.14L1982.33+722.911C1988.78+723.372+1999.6+723.643+2005.13+723.643C2010.15+723.643+2017.95+723.562+2023.21+722.911L2151.64+867.519L2151.64+744.15C2151.64+736.549+2146.61+730.507+2134.07+728.14L2134.07+722.911C2138.67+722.911+2155.2+723.728+2161.07+723.728C2166.18+723.728+2183.89+722.911+2188.55+722.911L2188.55+728.14C2176.3+730.906+2170.39+736.155+2170.39+744.15L2170.39+914.381L2162.65+914.381C2157.78+913.311+2148.58+908.296+2134.55+893.564L2019.64+765.39L2019.64+890.351C2019.64+897.947+2024.22+903.97+2036.76+906.342L2036.76+911.59C2032.15+911.59+2015.63+910.754+2009.76+910.754C2004.69+910.754+1987.35+911.59+1982.69+911.59L1982.69+906.342Z" opacity="1" fill="#1d1d1b"/>
<path d="M2996.15+868.104L3001.58+868.104C3004.46+878.7+3010.79+888.359+3019.66+893.94C3028.89+900.172+3043.38+903.153+3055.08+903.153C3080.92+903.153+3097.3+890.898+3097.3+871.503C3097.3+851.418+3076.32+840.989+3051.18+828.962C3032.48+820.001+2995.75+805.207+2995.75+771.204C2995.75+739.53+3020.98+719.826+3061.33+719.826C3087.96+719.826+3100.46+726.058+3118.43+725.26L3118.08+763.689L3112.59+763.689C3105.4+741.042+3083.93+733.151+3060.41+733.151C3034.11+733.151+3024.27+747.554+3024.27+762.201C3024.27+783.169+3045.7+793.742+3069.98+804.114C3097.3+815.761+3126.93+830.473+3126.93+863.236C3126.93+894.254+3101.59+916.715+3055.28+916.715C3027.73+916.715+3011.2+909.181+2996.72+907.474L2996.15+868.104Z" opacity="1" fill="#1d1d1b"/>
<path d="M3548.09+833.537L3495.8+753.199C3486.88+739.095+3480.04+731.66+3470.09+728.138L3470.09+722.928C3477.26+722.928+3496.61+723.75+3502.11+723.75C3507.08+723.75+3527.97+722.928+3535.51+722.928L3535.51+728.138C3528.83+729.269+3525.69+732.478+3525.69+737.308C3525.69+741.567+3528.72+747.048+3531.76+751.811C3534.75+756.532+3570.32+813.034+3570.32+813.034L3607.47+751.835C3611.22+745.703+3613.87+739.618+3613.87+735.606C3613.87+731.955+3611.17+728.932+3604.84+728.138L3604.84+722.928C3611.13+722.928+3624.34+723.75+3628.55+723.75C3632.76+723.75+3647.95+722.928+3654.19+722.928L3654.19+727.781C3639.91+733.386+3630.99+745.389+3622.33+759.303L3574.79+835.386M3578.03+825.793L3578.03+889.973C3578.03+896.334+3583.1+904.33+3594.53+906.34L3594.53+911.593C3588.16+911.593+3567.34+910.752+3561.31+910.752C3556.25+910.752+3536.28+911.593+3529.07+911.593L3529.07+906.34C3540.55+904.33+3546.06+896.334+3546.06+889.973L3546.06+828.608" opacity="1" fill="#1d1d1b"/>
<path d="M2576.38+722.93L2699.01+722.93C2702.8+722.93+2709.45+722.511+2713.23+720.938L2718.72+720.938L2717.86+759.091L2712.42+759.091C2707.76+747.088+2702.91+737.476+2679.18+737.476L2625.94+737.476L2625.94+803.966L2666.97+803.966C2672.95+803.966+2680.21+803.481+2683.34+802.768C2692.57+800.838+2696.63+795.923+2698.49+788.393L2703.96+788.393C2703.57+794.14+2703.57+807.261+2703.57+811.144C2703.57+815.047+2703.96+828.857+2703.96+835.113L2698.49+835.113C2695.85+827.597+2692.26+821.888+2683.34+819.791C2680.21+818.993+2672.82+818.342+2666.97+818.342L2625.94+818.342L2625.94+896.336L2683.84+896.336C2709.14+896.336+2716.48+886.239+2722.77+871.968L2728.19+873.18L2722.77+912.37C2703.96+910.773+2692.68+910.773+2671.33+910.773L2610.14+910.773C2604.24+910.773+2582.61+911.595+2576.32+911.595L2576.32+906.366C2587.36+904.35+2593.81+899.121+2593.81+888.986L2593.81+744.74C2593.81+735.798+2588.79+730.212+2576.38+728.221L2576.38+722.93Z" opacity="1" fill="#1d1d1b"/>
<path d="M2263.18+745.765C2263.18+736.091+2257.16+730.762+2245.34+728.324L2245.34+723.142C2251.92+723.142+2273.2+723.936+2279.41+723.936C2284.6+723.936+2306.48+723.142+2313.14+723.142L2313.14+728.324C2301.39+730.762+2295.23+735.583+2295.23+745.765L2295.23+889.009C2295.23+898.683+2301.28+903.95+2313.14+906.341L2313.14+911.594C2306.5+911.594+2285.52+910.771+2279.41+910.771C2274.12+910.771+2251.92+911.594+2245.32+911.594L2245.32+906.341C2257.4+904.183+2263.18+899.125+2263.18+889.009L2263.18+745.765Z" opacity="1" fill="#1d1d1b"/>
<path d="M3193.43+745.765C3193.43+736.091+3187.33+730.762+3175.54+728.324L3175.54+723.142C3182.12+723.142+3203.42+723.936+3209.58+723.936C3214.82+723.936+3236.69+723.142+3243.33+723.142L3243.33+728.324C3231.59+730.762+3225.45+735.583+3225.45+745.765L3225.45+889.009C3225.45+898.683+3231.5+903.95+3243.33+906.341L3243.33+911.594C3236.74+911.594+3215.78+910.771+3209.58+910.771C3204.38+910.771+3182.12+911.594+3175.54+911.594L3175.54+906.341C3187.59+904.183+3193.43+899.125+3193.43+889.009L3193.43+745.765Z" opacity="1" fill="#1d1d1b"/>
<path d="M3363.88+723.728C3296.65+723.728+3285.9+722.53+3272.15+721.713L3272.26+760.584L3277.74+760.584C3282.76+743.352+3292.78+739.344+3305.75+739.344L3347.92+739.344L3347.92+889.01C3347.92+899.121+3342.14+904.184+3330.04+906.342L3330.04+911.595C3336.68+911.595+3359.08+910.773+3364.25+910.773C3370.41+910.773+3391.45+911.595+3398.01+911.595L3398.01+906.342C3386.12+903.951+3380.1+898.684+3380.1+889.01L3380.1+739.344L3421.93+739.344C3435.39+739.344+3445.02+743.732+3450.03+760.584L3455.45+760.584L3455.54+721.713C3441.88+722.53+3431.12+723.728+3363.88+723.728" opacity="1" fill="#1d1d1b"/>
<path d="M2827.47+889.008C2827.47+898.682+2833.89+903.93+2845.75+906.34L2845.75+911.593C2839.17+911.593+2817.67+910.77+2811.54+910.77C2806.27+910.77+2785.28+911.593+2778.66+911.593L2778.66+906.34C2789.66+904.329+2796.15+899.124+2796.15+889.008L2796.15+744.3C2796.15+735.401+2791.09+729.796+2778.71+727.781L2778.71+722.576C2785.28+722.576+2806.08+723.369+2811.95+723.369C2821.58+723.369+2848.93+721.82+2859.69+721.82C2906.81+721.82+2933.05+740.478+2933.05+772.461C2933.05+797.603+2913.52+814.607+2883.44+821.553C2883.44+821.553+2890.31+825.37+2897.15+832.99C2905.46+842.369+2927.89+873.206+2937.21+883.988C2946.51+894.803+2958.4+906.868+2971.16+907.414L2971.16+911.631C2965.05+912.91+2955.25+914.027+2947.75+914.027C2931.75+914.027+2918.98+908.612+2906.57+894.237C2895.83+881.725+2877.62+855.765+2866.9+842.645C2860.04+834.293+2851.73+827.766+2836.52+825.37C2833.58+824.89+2830.8+824.49+2827.47+824.115L2827.47+889.008ZM2827.47+812.107C2833.74+812.925+2842.97+813.305+2852.08+813.305C2888.97+813.305+2900.59+792.988+2900.59+775.004C2900.59+749.567+2882.85+733.804+2850.57+733.804C2843.89+733.804+2834.2+734.602+2827.47+735.815L2827.47+812.107Z" opacity="1" fill="#1d1d1b"/>
<path d="M2360.39+746.374C2356.09+737.266+2349.5+730.591+2338.25+728.224L2338.25+722.909C2345.24+722.909+2369.46+723.751+2374.78+723.751C2379.68+723.751+2400.85+722.909+2408.04+722.909L2408.04+728.072C2401.66+729.246+2394.38+732.626+2394.38+738.882C2394.38+743.35+2397.21+749.44+2402.62+760.901L2453.38+871.501L2501.43+760.711C2505.22+751.769+2507.96+744.843+2507.96+739.552C2507.96+733.7+2502.33+729.645+2494.34+728.072L2494.34+722.909C2500.73+722.909+2516.38+723.751+2521.24+723.751C2525.69+723.751+2544.06+722.909+2551.07+722.909L2551.07+728.224C2539.08+731.328+2531.78+737.646+2525.05+752.611L2454.35+912.259L2438.35+912.259L2360.39+746.374Z" opacity="1" fill="#1d1d1b"/>
<path d="M2541.67+242.879C2533.5+225.604+2520.96+213.011+2499.72+208.5L2499.72+198.446C2512.93+198.446+2556.81+199.958+2566.9+199.958C2576.19+199.958+2618.69+198.446+2632.23+198.446L2632.23+208.248C2620.22+210.497+2606.41+216.919+2606.41+228.775C2606.41+237.146+2611.85+248.716+2621.93+270.393L2718.21+479.999L2809.32+270.037C2816.42+253.038+2821.73+240.046+2821.73+229.992C2821.73+218.825+2810.94+211.252+2795.84+208.248L2795.84+198.446C2807.9+198.446+2837.2+199.958+2846.51+199.958C2854.98+199.958+2889.78+198.446+2903.02+198.446L2903.02+207.934C2880.31+213.834+2866.42+226.322+2853.77+254.673L2719.83+557.299L2689.52+557.299L2541.67+242.879Z" opacity="1" fill="#1d1d1b"/>
<path d="M1245.19+545.775C1262.68+541.953+1274.97+534.338+1274.97+515.366L1274.97+237.925C1274.97+219.708+1263.53+212.15+1245.19+207.577L1245.19+197.732C1254.37+197.732+1293.93+199.225+1303.55+199.225C1314.64+199.225+1356.11+197.732+1365.23+197.732L1365.23+207.577C1347.76+211.375+1334.81+218.972+1334.81+237.925L1334.81+353.82L1550.65+353.82L1550.65+237.925C1550.65+218.972+1539.14+211.375+1520.91+207.577L1520.91+197.732C1530.02+197.732+1570.75+199.225+1581.81+199.225C1591.37+199.225+1631.85+197.732+1640.88+197.732L1640.88+207.577C1623.4+211.375+1610.44+218.972+1610.44+237.925L1610.44+515.366C1610.44+533.582+1622.6+541.221+1640.88+545.775L1640.88+554.859C1631.85+554.859+1591.37+554.108+1581.81+554.108C1570.75+554.108+1530.02+554.859+1520.91+554.859L1520.91+545.775C1538.27+541.953+1550.65+534.338+1550.65+515.366L1550.65+384.249L1334.81+384.249L1334.81+515.366C1334.81+534.338+1346.95+541.221+1365.23+545.775L1365.23+554.859C1356.11+554.859+1314.64+554.108+1303.55+554.108C1293.93+554.108+1254.37+554.859+1245.19+554.859L1245.19+545.775Z" opacity="1" fill="#1d1d1b"/>
<path d="M3741.8+545.775C3764.2+541.953+3776.54+533.434+3776.54+513.854L3776.54+237.925C3776.54+218.91+3764.37+211.375+3742.72+207.577L3742.72+197.732C3755.19+197.732+3795.78+199.225+3807.03+199.225C3825.18+199.225+3875.8+195.426+3915.21+195.426C4047.99+195.426+4128.6+266.428+4128.6+374.389C4128.6+479.328+4044.72+557.089+3907.82+557.089C3868.35+557.089+3821.54+554.108+3803.21+554.108C3792.08+554.108+3754.23+555.615+3741.8+555.615L3741.8+545.775ZM3836.33+527.492C3849.85+529.845+3874.84+531.314+3894.54+531.314C4006.08+531.314+4064.14+467.03+4064.14+377.37C4064.14+284.416+4002.88+219.014+3898.6+219.014C3877.29+219.014+3850.67+220.545+3836.33+222.774L3836.33+527.492Z" opacity="1" fill="#1d1d1b"/>
<path d="M2238.9+512.845C2238.9+531.232+2251.06+541.22+2273.44+545.774L2273.44+555.619C2260.97+555.619+2220.36+554.107+2208.68+554.107C2198.81+554.107+2158.96+555.619+2146.52+555.619L2146.52+545.774C2167.29+541.957+2179.55+532.05+2179.55+512.845L2179.55+238.893C2179.55+222.037+2170.03+211.379+2146.56+207.576L2146.56+197.731C2159.03+197.731+2198.39+199.224+2209.44+199.224C2227.7+199.224+2279.47+196.31+2299.89+196.31C2389.19+196.31+2438.89+231.672+2438.89+292.159C2438.89+339.843+2401.81+371.931+2344.9+385.175C2344.9+385.175+2357.8+392.376+2370.79+406.875C2386.56+424.611+2430.04+484.218+2447.62+504.635C2465.2+525.081+2487.75+547.913+2511.86+548.964L2511.86+557.007C2500.31+559.393+2481.81+561.433+2467.67+561.433C2437.23+561.433+2413.06+551.231+2389.54+523.945C2369.27+500.272+2333.8+449.944+2313.48+425.096C2300.51+409.266+2284.86+396.931+2256.13+392.377C2250.47+391.45+2245.15+390.736+2238.9+390.066L2238.9+512.845ZM2238.9+367.339C2250.71+368.827+2268.18+369.582+2285.5+369.582C2355.33+369.582+2377.26+331.092+2377.26+297.088C2377.26+248.8+2343.68+219.013+2282.51+219.013C2269.91+219.013+2251.55+220.549+2238.9+222.774L2238.9+367.339Z" opacity="1" fill="#1d1d1b"/>
<path d="M3415.78+512.845C3415.78+531.232+3427.99+541.22+3450.39+545.774L3450.39+555.619C3437.94+555.619+3397.37+554.107+3385.68+554.107C3375.65+554.107+3335.93+555.619+3323.44+555.619L3323.44+545.774C3344.17+541.957+3356.45+532.05+3356.45+512.845L3356.45+238.893C3356.45+222.037+3346.85+211.379+3323.51+207.576L3323.51+197.731C3336.02+197.731+3375.25+199.224+3386.39+199.224C3404.69+199.224+3456.43+196.31+3476.73+196.31C3566.18+196.31+3615.73+231.672+3615.73+292.159C3615.73+339.843+3578.74+371.931+3521.78+385.175C3521.78+385.175+3534.75+392.376+3547.63+406.875C3563.54+424.611+3607.03+484.218+3624.54+504.635C3642.18+525.081+3664.74+547.913+3688.71+548.964L3688.71+557.007C3677.32+559.393+3658.72+561.433+3644.73+561.433C3614.22+561.433+3589.93+551.231+3566.48+523.945C3546.2+500.272+3510.85+449.944+3490.36+425.096C3477.38+409.266+3461.79+396.931+3433.11+392.377C3427.37+391.45+3422.11+390.736+3415.78+390.066L3415.78+512.845ZM3415.78+367.339C3427.74+368.827+3445.1+369.582+3462.44+369.582C3532.29+369.582+3554.17+331.092+3554.17+297.088C3554.17+248.8+3520.56+219.013+3459.51+219.013C3446.79+219.013+3428.51+220.549+3415.78+222.774L3415.78+367.339Z" opacity="1" fill="#1d1d1b"/>
<path d="M1697.67+545.71C1721.3+540.424+1734.27+525.773+1742.89+506.169L1862.43+230.748C1867.51+219.353+1873.43+195.927+1873.43+195.927L1906.88+195.927C1906.88+195.927+1912.86+219.415+1917.83+230.833L2044.16+506.924C2053.17+525.939+2062.92+539.668+2088.04+545.71L2087.98+554.885C2074.3+554.885+2031.78+554.129+2022.11+554.129C2012.49+554.129+1971.88+554.885+1958.23+554.885L1958.27+545.71C1976.66+541.389+1982.47+532.428+1982.47+523.757C1982.47+516.394+1979.29+508.08+1975.43+499.456L1948.27+440.139L1809.07+440.139L1784.2+499.789C1781.42+506.549+1778.11+516.099+1778.11+522.54C1778.11+532.49+1783.54+540.424+1804.41+545.71L1804.36+554.885C1792+554.885+1759.37+554.129+1751.72+554.129L1697.65+554.885L1697.67+545.71ZM1935.67+412.016L1876.23+279.397L1820.87+412.016L1935.67+412.016Z" opacity="1" fill="#1d1d1b"/>
<path d="M2881.93+545.71C2905.54+540.424+2918.56+525.773+2927.13+506.169L3046.71+230.748C3051.8+219.353+3057.78+195.927+3057.78+195.927L3091.22+195.927C3091.22+195.927+3097.15+219.415+3102.1+230.833L3228.48+506.924C3237.41+525.939+3247.25+539.668+3272.27+545.71L3272.22+554.885C3258.59+554.885+3216.02+554.129+3206.29+554.129C3196.76+554.129+3156.17+554.885+3142.49+554.885L3142.49+545.71C3160.99+541.389+3166.71+532.428+3166.71+523.757C3166.71+516.394+3163.57+508.08+3159.78+499.456L3132.52+440.139L2993.32+440.139L2968.42+499.789C2965.64+506.549+2962.35+516.099+2962.35+522.54C2962.35+532.49+2967.79+540.424+2988.65+545.71L2988.65+554.885C2976.24+554.885+2943.66+554.129+2935.96+554.129L2881.89+554.885L2881.93+545.71ZM3119.94+412.016L3060.45+279.397L3005.13+412.016L3119.94+412.016Z" opacity="1" fill="#1d1d1b"/>
<path d="M141.555+86.3733L975.033+86.3733L975.033+387.863C975.033+526.001+921.334+818.949+561.404+1036.97C561.404+1036.97+171.405+881.009+141.555+387.863L141.555+86.3733Z" opacity="1" fill="#a81d28"/>
<path stroke="#12110c" stroke-width="0.306667" d="M139.846+85.5747L974.133+85.5747L974.133+387.274C974.133+525.46+920.37+818.569+560.112+1036.74C560.112+1036.74+169.741+880.676+139.846+387.274L139.846+85.5747Z" fill="none" stroke-linecap="butt" opacity="1" stroke-linejoin="miter"/>
<path d="M772.404+473.787C772.404+473.787+764.973+496.472+731.926+473.155L618.457+470.531C618.457+470.531+603.599+475.109+601.578+460.225C601.578+460.225+604.299+430.49+602.919+427.885C602.919+427.885+603.599+419.49+588.691+419.49C588.691+419.49+565.766+422.072+565.086+402.638C565.086+402.638+561.08+381.945+592.792+382.635C592.792+382.635+602.919+387.146+603.599+374.829C603.599+374.829+602.264+290.731+602.919+284.309C602.919+284.309+605.634+276.584+590.071+275.263C590.071+275.263+567.806+279.774+565.086+265.589C565.086+265.589+563.751+244.245+578.634+242.923C578.634+242.923+596.847+244.245+600.218+239.691C600.218+239.691+604.299+242.248+603.599+226.803L604.299+200.23C604.299+200.23+606.25+193.137+617.757+193.831C617.757+193.831+638.706+195.11+641.447+193.137C641.447+193.137+646.118+187.347+647.498+184.719C647.498+184.719+658.325+184.091+660.321+186.691C660.321+186.691+676.539+197.04+737.992+193.137C737.992+193.137+747.464+193.137+749.435+195.742C749.435+195.742+760.962+204.133+767.693+195.11C767.693+195.11+777.82+193.137+808.197+193.831C808.197+193.831+841.333+202.203+864.239+184.091L871.69+185.394C871.69+185.394+881.137+200.23+887.888+195.742C887.888+195.742+908.163+193.832+911.513+197.692C911.513+197.692+918.245+207.327+914.889+232.636C914.889+232.636+910.883+243.593+930.452+243.593C930.452+243.593+952.767+239.691+950.021+259.732C950.021+259.732+956.093+282.379+918.99+279.165C918.99+279.165+914.234+285.63+914.889+290.165C914.889+290.165+914.234+363.853+913.554+372.31C913.554+372.31+912.894+383.961+929.072+383.286C929.072+383.286+950.706+381.945+951.426+400.727C951.426+400.727+954.102+425.304+923.001+420.75C923.001+420.75+913.554+422.072+912.149+427.885L910.883+460.225C910.883+460.225+911.513+476.387+892.644+472.485C889.949+472.485+787.307+474.481+778.5+471.9C778.5+471.9+773.72+471.249+772.404+473.787" opacity="1" fill="#ffffff"/>
<path d="M554.262+581.874C554.262+581.874+558.998+579.963+560.333+576.773C560.333+576.773+574.536+575.447+576.527+573.522L621.131+576.773C621.131+576.773+665.01+579.963+683.924+566.971C683.924+566.971+690.72+566.971+695.451+568.944C695.451+568.944+704.853+570.916+707.549+574.738L733.239+574.087C733.239+574.087+748.097+578.66+746.717+587.726L746.717+599.334C746.717+599.334+744.002+622.632+750.753+623.954L770.387+623.954C770.387+623.954+786.61+631.051+784.57+640.093C784.57+640.093+785.25+652.98+771.092+655.604C771.092+655.604+756.844+659.464+752.173+658.855C752.173+658.855+747.417+664.65+746.717+671.762L744.746+756.492C744.746+756.492+743.366+765.538+757.569+764.255C757.569+764.255+778.454+762.306+784.57+773.344C784.57+773.344+789.981+792.064+779.179+795.296L771.092+799.137L753.488+801.828C753.488+801.828+746.107+802.413+745.402+814.692L745.402+837.291C745.402+837.291+746.107+852.869+733.239+852.869L714.325+854.166C714.325+854.166+709.609+857.988+700.167+855.407C700.167+855.407+585.338+857.399+581.282+856.082L567.765+858.702C567.765+858.702+552.922+871.632+540.759+861.891L531.312+854.775C531.312+854.775+524.541+856.082+521.89+855.407C519.174+854.775+394.899+856.729+394.899+856.729C394.899+856.729+368.553+859.353+366.557+850.896C366.557+850.896+363.187+817.943+364.522+813.998C364.522+813.998+364.522+804.343+358.451+803.715C358.451+803.715+332.105+802.413+331.425+799.789C331.425+799.789+317.222+790.139+321.278+780.455C321.278+780.455+326.034+767.468+340.192+766.185C340.192+766.185+361.802+769.46+361.802+763.627C361.802+763.627+363.187+759.743+363.187+753.302C363.187+753.302+364.522+676.297+363.842+671.134C363.842+671.134+365.857+661.437+357.071+661.437C357.071+661.437+347.624+663.999+341.572+660.139C341.572+660.139+325.354+660.79+321.978+648.488C321.978+648.488+319.263+640.744+323.294+634.217C323.294+634.217+330.75+620.008+352.36+624.557C352.36+624.557+364.522+627.814+365.857+619.438L365.222+588.334C365.222+588.334+362.482+579.963+379.38+575.447C379.38+575.447+400.99+581.242+407.721+570.916C407.721+570.916+415.173+556.641+421.179+566.343C421.179+566.343+434.067+578.014+469.179+576.773C469.179+576.773+529.977+572.2+531.312+574.738C531.312+574.738+546.175+576.773+550.206+581.242L554.262+581.874Z" opacity="1" fill="#ffffff"/>
<path d="M370.658+473.787C370.658+473.787+363.207+496.472+330.115+473.136L216.666+470.531C216.666+470.531+201.808+475.109+199.768+460.211C199.768+460.211+202.488+430.49+201.083+427.885C201.083+427.885+201.808+419.447+186.925+419.447C186.925+419.447+164+422.091+163.34+402.681C163.34+402.681+159.264+381.922+191.001+382.635C191.001+382.635+201.083+387.146+201.808+374.853C201.808+374.853+200.448+290.793+201.083+284.29C201.083+284.29+203.844+276.608+188.305+275.282C188.305+275.282+165.991+279.774+163.34+265.546C163.34+265.546+161.96+244.245+176.798+242.923C176.798+242.923+195.037+244.245+198.433+239.771C198.433+239.771+202.488+242.272+201.808+226.737L202.488+200.254C202.488+200.254+204.524+193.137+215.942+193.789C215.942+193.789+236.941+195.067+239.656+193.137C239.656+193.137+244.372+187.347+245.663+184.719C245.663+184.719+256.535+184.11+258.55+186.63C258.55+186.63+274.724+197.04+336.246+193.137C336.246+193.137+345.648+193.137+347.689+195.742C347.689+195.742+359.151+204.133+365.903+195.067C365.903+195.067+376.03+193.137+406.446+193.789C406.446+193.789+439.478+202.184+462.473+184.11L469.88+185.436C469.88+185.436+479.327+200.254+486.143+195.742C486.143+195.742+506.372+193.789+509.768+197.692C509.768+197.692+516.539+207.389+513.099+232.636C513.099+232.636+509.087+243.612+528.662+243.612C528.662+243.612+550.926+239.771+548.256+259.732C548.256+259.732+554.347+282.379+517.199+279.165C517.199+279.165+512.443+285.649+513.099+290.165C513.099+290.165+512.443+363.853+511.783+372.31C511.783+372.31+511.128+383.875+527.326+383.286C527.326+383.286+548.936+381.922+549.591+400.751C549.591+400.751+552.287+425.304+521.25+420.75C521.25+420.75+511.783+422.091+510.403+427.885L509.087+460.211C509.087+460.211+509.768+476.387+490.809+472.527C488.113+472.527+385.521+474.438+376.705+471.9C376.705+471.9+371.994+471.249+370.658+473.787" opacity="1" fill="#ffffff"/>
<path d="M772.404+473.787C772.404+473.787+764.973+496.472+731.926+473.155L618.457+470.531C618.457+470.531+603.599+475.109+601.578+460.225C601.578+460.225+604.299+430.49+602.919+427.885C602.919+427.885+603.599+419.49+588.691+419.49C588.691+419.49+565.766+422.072+565.086+402.638C565.086+402.638+561.08+381.945+592.792+382.635C592.792+382.635+602.919+387.146+603.599+374.829C603.599+374.829+602.264+290.731+602.919+284.309C602.919+284.309+605.634+276.584+590.071+275.263C590.071+275.263+567.806+279.774+565.086+265.589C565.086+265.589+563.751+244.245+578.634+242.923C578.634+242.923+596.847+244.245+600.218+239.691C600.218+239.691+604.299+242.248+603.599+226.803L604.299+200.23C604.299+200.23+606.25+193.137+617.757+193.831C617.757+193.831+638.706+195.11+641.447+193.137C641.447+193.137+646.118+187.347+647.498+184.719C647.498+184.719+658.325+184.091+660.321+186.691C660.321+186.691+676.539+197.04+737.992+193.137C737.992+193.137+747.464+193.137+749.435+195.742C749.435+195.742+760.962+204.133+767.693+195.11C767.693+195.11+777.82+193.137+808.197+193.831C808.197+193.831+841.333+202.203+864.239+184.091L871.69+185.394C871.69+185.394+881.137+200.23+887.888+195.742C887.888+195.742+908.163+193.832+911.513+197.692C911.513+197.692+918.245+207.327+914.889+232.636C914.889+232.636+910.883+243.593+930.452+243.593C930.452+243.593+952.767+239.691+950.021+259.732C950.021+259.732+956.093+282.379+918.99+279.165C918.99+279.165+914.234+285.63+914.889+290.165C914.889+290.165+914.234+363.853+913.554+372.31C913.554+372.31+912.894+383.961+929.072+383.286C929.072+383.286+950.706+381.945+951.426+400.727C951.426+400.727+954.102+425.304+923.001+420.75C923.001+420.75+913.554+422.072+912.149+427.885L910.883+460.225C910.883+460.225+911.513+476.387+892.644+472.485C889.949+472.485+787.307+474.481+778.5+471.9C778.5+471.9+773.72+471.249+772.404+473.787" opacity="1" fill="#12110c"/>
<path stroke="#12110c" stroke-width="0.0133333" d="M772.404+473.806C772.404+473.806+764.973+496.495+731.926+473.178L618.432+470.554C618.432+470.554+603.574+475.127+601.559+460.229C601.559+460.229+604.299+430.49+602.894+427.885C602.894+427.885+603.574+419.49+588.691+419.49C588.691+419.49+565.746+422.095+565.066+402.657C565.066+402.657+561.055+381.964+592.767+382.634C592.767+382.634+602.894+387.15+603.574+374.852C603.574+374.852+602.239+290.75+602.894+284.308C602.894+284.308+605.634+276.565+590.071+275.262C590.071+275.262+567.782+279.778+565.066+265.588C565.066+265.588+563.751+244.22+578.609+242.923C578.609+242.923+596.823+244.22+600.203+239.69C600.203+239.69+604.299+242.248+603.574+226.779L604.299+200.211C604.299+200.211+606.225+193.118+617.777+193.812C617.777+193.812+638.706+195.091+641.427+193.118C641.427+193.118+646.098+187.347+647.498+184.718C647.498+184.718+658.305+184.072+660.321+186.677C660.321+186.677+676.519+197.021+737.992+193.118C737.992+193.118+747.464+193.118+749.435+195.718C749.435+195.718+760.962+204.113+767.693+195.091C767.693+195.091+777.82+193.118+808.197+193.812C808.197+193.812+841.333+202.183+864.258+184.072L871.715+185.35C871.715+185.35+881.157+200.211+887.888+195.718C887.888+195.718+908.163+193.812+911.513+197.648C911.513+197.648+918.265+207.327+914.914+232.593C914.914+232.593+910.883+243.593+930.472+243.593C930.472+243.593+952.767+239.69+950.021+259.713C950.021+259.713+956.093+282.378+918.99+279.146C918.99+279.146+914.254+285.611+914.914+290.165C914.914+290.165+914.254+363.852+913.574+372.29C913.574+372.29+912.894+383.937+929.092+383.309C929.092+383.309+950.746+381.964+951.446+400.727C951.446+400.727+954.102+425.304+923.021+420.75C923.021+420.75+913.574+422.095+912.174+427.885L910.883+460.229C910.883+460.229+911.513+476.411+892.669+472.508C889.973+472.508+787.307+474.481+778.5+471.899C778.5+471.899+773.72+471.267+772.404+473.806Z" fill="none" stroke-linecap="butt" opacity="1" stroke-linejoin="miter"/>
<path d="M644.78+207.347C644.78+207.347+646.116+220.296+646.116+223.571C646.116+226.78+644.125+410.425+644.125+410.425C644.125+410.425+646.116+424.653+633.337+431.789C633.337+431.789+629.917+433.048+629.282+424.002L630.602+230.055C630.602+230.055+631.957+206.063+644.78+207.347" opacity="1" fill="#ffffff"/>
<path stroke="#12110c" stroke-width="0.016" d="M644.802+207.326C644.802+207.326+646.117+220.275+646.117+223.55C646.117+226.778+644.147+410.447+644.147+410.447C644.147+410.447+646.117+424.675+633.339+431.787C633.339+431.787+629.919+433.07+629.239+424.024L630.599+230.034C630.599+230.034+631.935+206.042+644.802+207.326Z" fill="none" stroke-linecap="butt" opacity="1" stroke-linejoin="miter"/>
<path d="M622.511+433.701C622.511+433.701+623.851+251.339+623.216+248.106C622.511+244.916+623.851+250.749+623.851+250.749C623.851+250.749+621.831+219.013+630.622+206.045C630.622+206.045+627.882+195.112+612.364+208.669L611.684+235.152C611.684+235.152+611.684+250.055+597.526+249.404C597.526+249.404+581.307+248.734+573.876+255.85C573.876+255.85+569.825+270.097+585.338+267.539C585.338+267.539+609.668+267.539+611.028+277.17L609.668+374.85C609.668+374.85+615.079+391.093+596.19+391.093C596.19+391.093+573.156+389.71+573.876+403.291C573.876+403.291+578.632+414.914+598.206+411.073C598.206+411.073+612.364+413.611+611.684+426.603L611.684+451.161C611.684+451.161+610.324+460.92+623.851+461.529L729.203+461.529C729.203+461.529+734.575+462.156+734.575+455.691C734.575+455.691+733.919+450.533+725.827+450.533L638.049+449.231C638.049+449.231+623.851+453.785+622.511+433.701" opacity="1" fill="#ffffff"/>
<path d="M642.785+433.406C642.785+433.406+640.07+442.452+650.192+440.56L719.761+440.56L738.63+444.487C738.63+444.487+758.205+439.914+738.63+429.584C738.63+429.584+676.517+430.173+671.126+428.914C671.126+428.914+658.283+425.7+655.518+425.054C655.518+425.054+648.836+422.472+642.785+433.406" opacity="1" fill="#ffffff"/>
<path stroke="#12110c" stroke-width="0.016" d="M642.763+433.406C642.763+433.406+640.048+442.471+650.17+440.584L719.759+440.584L738.633+444.506C738.633+444.506+758.222+439.914+738.633+429.565C738.633+429.565+676.515+430.15+671.099+428.914C671.099+428.914+658.262+425.681+655.521+425.03C655.521+425.03+648.815+422.449+642.763+433.406Z" fill="none" stroke-linecap="butt" opacity="1" stroke-linejoin="miter"/>
<path d="M758.224+442.473C758.224+442.473+745.401+442.473+746.061+458.673C746.061+458.673+747.417+470.909+760.919+470.909C760.919+470.909+773.037+469.003+771.747+456.073C771.747+456.073+764.295+439.91+758.224+442.473" opacity="1" fill="#ffffff"/>
<path d="M767.692+436.029C767.692+436.029+773.763+429.588+777.839+429.588C777.839+429.588+845.368+435.378+856.766+427.634C856.766+427.634+866.958+425.704+869.673+427.634C869.673+427.634+879.78+435.378+879.78+439.913C879.78+439.913+879.12+445.764+866.958+442.451C866.958+442.451+790.642+443.164+786.586+443.164C786.586+443.164+765.612+447.656+767.692+436.029" opacity="1" fill="#ffffff"/>
<path stroke="#12110c" stroke-width="0.016" d="M767.67+436.029C767.67+436.029+773.741+429.564+777.817+429.564C777.817+429.564+845.366+435.359+856.789+427.61C856.789+427.61+866.975+425.68+869.696+427.61C869.696+427.61+879.798+435.359+879.798+439.932C879.798+439.932+879.143+445.788+866.975+442.47C866.975+442.47+790.62+443.183+786.564+443.183C786.564+443.183+765.59+447.675+767.67+436.029Z" fill="none" stroke-linecap="butt" opacity="1" stroke-linejoin="miter"/>
<path d="M776.459+456.996C776.459+456.996+776.459+451.767+785.926+451.767L880.436+451.139C880.436+451.139+889.248+455.674+889.248+440.182C889.248+440.182+892.708+369.689+893.016+292.075C893.125+268.967+894.222+244.728+893.368+222.267C893.368+222.267+891.263+212.55+888.548+210.577C888.548+210.577+888.548+200.252+900.05+204.136C900.05+204.136+910.177+204.787+907.481+219.709L908.181+242.247C908.181+242.247+906.146+252.006+924.335+249.387C924.335+249.387+942.549+252.006+943.274+258.428C943.274+258.428+948.665+271.42+927.095+270.099L911.493+270.099C911.493+270.099+904.766+273.963+906.782+281.75L904.766+375.541C904.766+375.541+903.406+391.68+919.624+391.071C919.624+391.071+936.478+390.401+939.873+395.587C939.873+395.587+951.425+411.745+926.395+410.447C926.395+410.447+910.857+409.772+907.481+412.396C907.481+412.396+904.766+415.605+902.746+446.038C902.746+446.038+904.126+464.15+889.923+462.158C889.923+462.158+796.033+463.437+787.266+461.531C787.266+461.531+777.819+464.15+776.459+456.996" opacity="1" fill="#ffffff"/>
<path d="M654.927+201.47L652.886+409.121C652.886+409.121+652.231+418.757+669.11+420.706C669.11+420.706+688.679+422.636+693.37+420.706C693.37+420.706+706.282+420.036+739.309+421.357C739.309+421.357+747.461+429.187+748.141+419.408C748.141+419.408+753.487+251.336+750.861+216.33C750.861+216.33+750.117+201.47+738.674+200.818C738.674+200.818+687.343+204.788+682.612+200.818L662.338+195.699C662.338+195.699+654.227+196.326+654.927+201.47" opacity="1" fill="#ffffff"/>
<path d="M761.601+211.86C761.601+211.86+759.585+309.515+760.26+312.748L758.925+394.854L756.185+423.333C756.185+423.333+760.26+429.142+763.641+425.282C763.641+425.282+785.25+420.034+798.748+422.073C798.748+422.073+842.017+425.914+850.759+419.407C850.759+419.407+857.53+422.639+859.506+412.29C859.506+412.29+862.177+231.274+860.931+228.041C860.931+228.041+863.537+202.1+862.177+199.581C862.177+199.581+861.586+193.767+850.079+198.91C850.079+198.91+851.395+204.116+787.286+202.1C787.286+202.1+762.981+201.468+761.601+211.86" opacity="1" fill="#ffffff"/>
<path d="M869.016+209.299L868.361+413.614C868.361+413.614+873.752+431.787+882.519+429.881C882.519+429.881+883.835+425.954+884.49+419.489L887.23+224.811C887.23+224.811+880.434+193.831+869.016+209.299" opacity="1" fill="#ffffff"/>
<path stroke="#12110c" stroke-width="0.016" d="M868.994+209.278L868.339+413.636C868.339+413.636+873.75+431.814+882.517+429.903C882.517+429.903+883.857+425.976+884.513+419.511L887.228+224.79C887.228+224.79+880.437+193.81+868.994+209.278Z" fill="none" stroke-linecap="butt" opacity="1" stroke-linejoin="miter"/>
<path d="M786.08+270.478C784.064+265.315+797.562+264.664+797.562+264.664L804.339+265.942C809.075+265.315+813.806+267.264+813.806+267.264C818.522+274.361+810.41+278.221+810.41+278.221L807.714+286.659C807.014+293.794+807.714+355.227+807.714+355.227C809.075+358.416+814.466+364.211+814.466+364.211C814.466+370.063+807.014+368.784+807.014+368.784L787.46+369.436C781.369+368.784+783.384+362.295+783.384+362.295C790.136+359.068+792.176+347.397+792.176+347.397L792.176+283.408L786.08+270.478Z" opacity="1" fill="#12110c"/>
<path d="M694.927+330.628L693.591+350.669L699.618+360.348C703.719+365.51+696.942+369.437+696.942+369.437L675.333+367.502C671.322+365.51+675.333+359.064+675.333+359.064C680.749+355.879+681.424+347.418+681.424+347.418L680.749+309.916L681.424+282.758C681.424+279.502+676.033+273.731+676.033+273.731C671.322+273.079+672.657+267.265+672.657+267.265C673.997+264.014+685.435+265.944+685.435+265.944L713.841+265.944C740.866+274.363+736.81+293.121+736.81+293.121C738.851+311.846+717.916+319.651+717.916+319.651L716.516+330L736.13+359.697C739.506+362.297+738.851+364.921+738.851+364.921C736.13+372.037+725.303+364.921+725.303+364.921L701.023+328.679C698.983+326.074+694.927+330.628+694.927+330.628M695.607+279.502C696.262+293.772+696.262+313.167+696.262+313.167C709.13+322.884+716.516+309.265+716.516+309.265C733.37+293.772+716.516+279.502+713.841+275.661C711.1+271.758+697.603+274.99+697.603+274.99L695.607+279.502Z" opacity="1" fill="#12110c"/>
<path d="M554.262+581.874C554.262+581.874+558.998+579.963+560.333+576.773C560.333+576.773+574.536+575.447+576.527+573.522L621.131+576.773C621.131+576.773+665.01+579.963+683.924+566.971C683.924+566.971+690.72+566.971+695.451+568.944C695.451+568.944+704.853+570.916+707.549+574.738L733.239+574.087C733.239+574.087+748.097+578.66+746.717+587.726L746.717+599.334C746.717+599.334+744.002+622.632+750.753+623.954L770.387+623.954C770.387+623.954+786.61+631.051+784.57+640.093C784.57+640.093+785.25+652.98+771.092+655.604C771.092+655.604+756.844+659.464+752.173+658.855C752.173+658.855+747.417+664.65+746.717+671.762L744.746+756.492C744.746+756.492+743.366+765.538+757.569+764.255C757.569+764.255+778.454+762.306+784.57+773.344C784.57+773.344+789.981+792.064+779.179+795.296L771.092+799.137L753.488+801.828C753.488+801.828+746.107+802.413+745.402+814.692L745.402+837.291C745.402+837.291+746.107+852.869+733.239+852.869L714.325+854.166C714.325+854.166+709.609+857.988+700.167+855.407C700.167+855.407+585.338+857.399+581.282+856.082L567.765+858.702C567.765+858.702+552.922+871.632+540.759+861.891L531.312+854.775C531.312+854.775+524.541+856.082+521.89+855.407C519.174+854.775+394.899+856.729+394.899+856.729C394.899+856.729+368.553+859.353+366.557+850.896C366.557+850.896+363.187+817.943+364.522+813.998C364.522+813.998+364.522+804.343+358.451+803.715C358.451+803.715+332.105+802.413+331.425+799.789C331.425+799.789+317.222+790.139+321.278+780.455C321.278+780.455+326.034+767.468+340.192+766.185C340.192+766.185+361.802+769.46+361.802+763.627C361.802+763.627+363.187+759.743+363.187+753.302C363.187+753.302+364.522+676.297+363.842+671.134C363.842+671.134+365.857+661.437+357.071+661.437C357.071+661.437+347.624+663.999+341.572+660.139C341.572+660.139+325.354+660.79+321.978+648.488C321.978+648.488+319.263+640.744+323.294+634.217C323.294+634.217+330.75+620.008+352.36+624.557C352.36+624.557+364.522+627.814+365.857+619.438L365.222+588.334C365.222+588.334+362.482+579.963+379.38+575.447C379.38+575.447+400.99+581.242+407.721+570.916C407.721+570.916+415.173+556.641+421.179+566.343C421.179+566.343+434.067+578.014+469.179+576.773C469.179+576.773+529.977+572.2+531.312+574.738C531.312+574.738+546.175+576.773+550.206+581.242L554.262+581.874Z" opacity="1" fill="#12110c"/>
<path stroke="#12110c" stroke-width="0.0133333" d="M554.262+581.075C554.262+581.075+558.948+579.188+560.333+575.955C560.333+575.955+574.511+574.634+576.527+572.699L621.111+575.955C621.111+575.955+665.01+579.188+683.924+566.196C683.924+566.196+690.72+566.196+695.451+568.169C695.451+568.169+704.878+570.118+707.529+573.94L733.259+573.308C733.259+573.308+748.097+577.885+746.717+586.927L746.717+598.559C746.717+598.559+744.022+621.853+750.773+623.136L770.387+623.136C770.387+623.136+786.585+630.271+784.59+639.318C784.59+639.318+785.27+652.205+771.092+654.829C771.092+654.829+756.869+658.689+752.198+658.057C752.198+658.057+747.442+663.871+746.717+670.987L744.722+755.736C744.722+755.736+743.366+764.74+757.544+763.48C757.544+763.48+778.454+761.574+784.59+772.545C784.59+772.545+790.006+791.289+779.198+794.541L771.092+798.405L753.488+801.029C753.488+801.029+746.082+801.657+745.426+813.893L745.426+836.582C745.426+836.582+746.082+852.089+733.259+852.089L714.345+853.392C714.345+853.392+709.609+857.256+700.167+854.675C700.167+854.675+585.338+856.624+581.282+855.284L567.74+857.903C567.74+857.903+552.922+870.852+540.759+861.093L531.292+853.976C531.292+853.976+524.541+855.284+521.87+854.675C519.15+853.976+394.899+855.973+394.899+855.973C394.899+855.973+368.533+858.578+366.518+850.14C366.518+850.14+363.162+817.145+364.497+813.242C364.497+813.242+364.497+803.587+358.406+802.936C358.406+802.936+332.085+801.657+331.385+799.052C331.385+799.052+317.203+789.34+321.253+779.662C321.253+779.662+326.009+766.693+340.192+765.386C340.192+765.386+361.782+768.709+361.782+762.805C361.782+762.805+363.162+758.945+363.162+752.523C363.162+752.523+364.497+675.522+363.842+670.355C363.842+670.355+365.857+660.619+357.046+660.619C357.046+660.619+347.604+663.2+341.528+659.359C341.528+659.359+325.334+659.992+321.958+647.713C321.958+647.713+319.218+639.969+323.294+633.461C323.294+633.461+330.705+619.228+352.335+623.763C352.335+623.763+364.497+627.039+365.857+618.644L365.177+587.559C365.177+587.559+362.462+579.188+379.36+574.634C379.36+574.634+400.97+580.467+407.721+570.118C407.721+570.118+415.128+555.871+421.179+565.526C421.179+565.526+434.067+577.196+469.154+575.955C469.154+575.955+529.977+571.378+531.292+573.94C531.292+573.94+546.175+575.955+550.206+580.467L554.262+581.075Z" fill="none" stroke-linecap="butt" opacity="1" stroke-linejoin="miter"/>
<path d="M571.816+836.035C571.816+836.035+579.948+832.108+585.364+833.454C590.775+834.737+669.766+832.821+669.766+832.821C669.766+832.821+704.199+835.384+709.635+830.806L717.677+828.248C717.677+828.248+721.072+824.388+721.072+819.245C721.072+814.02+721.752+796.555+721.752+796.555L723.813+790.138C723.813+790.138+723.113+783.668+723.813+610.961C723.813+610.961+726.463+597.446+717.677+588.989C717.677+588.989+717.677+583.865+720.372+584.478C723.113+585.172+721.752+585.172+721.752+585.172C721.752+585.172+733.895+581.873+735.891+586.403C735.891+586.403+741.346+601.872+736.591+610.961C736.591+610.961+735.23+629.743+745.447+629.743C745.447+629.743+749.433+633.65+757.545+631.677C757.545+631.677+775.099+633.65+775.099+638.77C775.099+638.77+775.099+650.459+762.936+648.51L746.698+649.765C746.698+649.765+735.891+651.762+737.271+664.003C738.651+676.296+736.591+764.254+736.591+764.254C736.591+764.254+736.591+774.645+753.514+773.994C753.514+773.994+774.423+773.324+774.423+779.114C774.423+779.114+779.81+792.044+764.976+792.719C764.976+792.719+736.591+792.044+738.651+799.788C738.651+799.788+736.591+817.942+735.23+821.132C735.23+821.132+737.995+836.035+734.555+838.64C734.555+838.64+732.56+847.011+714.346+845.732C714.346+845.732+598.206+845.1+579.948+846.384C579.948+846.384+569.121+845.1+571.816+836.035" opacity="1" fill="#ffffff"/>
<path d="M550.929+823.756C550.929+823.756+562.391+825.667+562.391+836.035C562.391+846.36+563.072+852.193+556.28+853.476C549.549+854.774+542.142+852.868+540.146+844.468C538.066+836.035+541.437+825.667+550.929+823.756" opacity="1" fill="#ffffff"/>
<path d="M564.408+818.593C564.408+818.593+576.551+810.783+581.282+812.133C581.282+812.133+642.72+815.969+661.679+812.799C680.568+809.547+669.085+812.133+669.085+812.133C669.085+812.133+685.309+812.133+689.995+806.272C689.995+806.272+694.751+805.031+697.446+809.547L707.529+819.934C707.529+819.934+708.293+826.337+696.766+825.686C696.766+825.686+586.653+825.686+583.322+826.337C583.322+826.337+562.393+829.527+564.408+818.593" opacity="1" fill="#ffffff"/>
<path stroke="#12110c" stroke-width="0.016" d="M564.387+818.593C564.387+818.593+576.529+810.783+581.26+812.109C581.26+812.109+642.743+815.969+661.677+812.799C680.595+809.528+669.083+812.109+669.083+812.109C669.083+812.109+685.326+812.109+690.018+806.229C690.018+806.229+694.754+805.017+697.469+809.528L707.551+819.934C707.551+819.934+708.296+826.361+696.789+825.686C696.789+825.686+586.676+825.686+583.3+826.361C583.3+826.361+562.371+829.551+564.387+818.593Z" fill="none" stroke-linecap="butt" opacity="1" stroke-linejoin="miter"/>
<path d="M404.368+589.009C404.368+589.009+409.104+589.009+408.419+596.776L407.044+792.063C407.044+792.063+409.104+805.032+397.617+813.408C397.617+813.408+391.501+820.5+391.501+809.548L394.261+610.353C394.261+610.353+394.901+595.469+404.368+589.009" opacity="1" fill="#ffffff"/>
<path stroke="#12110c" stroke-width="0.016" d="M404.368+588.99C404.368+588.99+409.104+588.99+408.464+596.753L407.044+792.088C407.044+792.088+409.104+805.056+397.597+813.432C397.597+813.432+391.456+820.524+391.456+809.567L394.221+610.353C394.221+610.353+394.877+595.45+404.368+588.99Z" fill="none" stroke-linecap="butt" opacity="1" stroke-linejoin="miter"/>
<path d="M393.563+590.309C393.563+590.309+385.451+604.56+386.131+607.817L385.451+651.09C385.451+651.09+384.771+678.899+385.451+682.15C386.131+685.364+384.771+766.862+384.771+766.862C384.771+766.862+384.096+782.345+384.771+787.55L384.771+822.456C384.771+822.456+383.416+838.006+395.558+834.06C395.558+834.06+514.438+831.503+521.889+833.471C521.889+833.471+532.652+835.386+528.661+840.568C528.661+840.568+528.661+845.127+521.165+843.801C521.165+843.801+465.123+848.939+414.492+847.033C414.492+847.033+380.72+848.939+378.66+845.127C378.66+845.127+373.288+844.471+373.288+825.689C373.288+825.689+373.288+808.271+371.973+805.034C371.973+805.034+373.288+795.864+356.415+793.996C356.415+793.996+332.785+797.899+332.105+784.322C332.105+784.322+335.461+774.624+358.45+775.884C358.45+775.884+375.329+778.484+371.973+765.516L373.969+669.872C373.969+669.872+376.049+652.982+364.522+652.307C364.522+652.307+353.759+651.784+350.319+652.982C350.319+652.982+330.75+652.982+332.105+642.067C332.105+642.067+338.856+630.397+358.45+632.997C358.45+632.997+373.288+635.564+373.969+619.44C373.969+619.44+373.288+586.43+381.375+585.17C381.375+585.17+398.299+585.755+393.563+590.309" opacity="1" fill="#ffffff"/>
<path d="M413.793+804.342C413.793+804.342+423.26+813.997+438.823+813.431L530.588+814.691C530.588+814.691+540.784+815.38+540.144+820.5C540.144+820.5+538.699+828.248+526.601+825.667L415.828+824.388L403.646+825.097C403.646+825.097+395.534+823.756+408.422+808.896L413.793+804.342Z" opacity="1" fill="#ffffff"/>
<path stroke="#12110c" stroke-width="0.016" d="M413.769+804.323C413.769+804.323+423.241+813.997+438.823+813.408L530.613+814.691C530.613+814.691+540.78+815.361+540.169+820.5C540.169+820.5+538.745+828.268+526.647+825.71L415.809+824.427L403.622+825.097C403.622+825.097+395.535+823.78+408.397+808.877L413.769+804.323Z" fill="none" stroke-linecap="butt" opacity="1" stroke-linejoin="miter"/>
<path d="M697.448+795.884C697.448+795.884+705.554+810.786+709.61+812.821C709.61+812.821+717.042+821.154+715.026+806.294L716.362+620.029C716.362+620.029+714.321+613.545+716.362+603.239L708.275+589.007C708.275+589.007+699.463+582.546+699.463+592.872L698.128+791.434L697.448+795.884Z" opacity="1" fill="#ffffff"/>
<path stroke="#12110c" stroke-width="0.016" d="M697.426+795.907C697.426+795.907+705.557+810.786+709.633+812.844C709.633+812.844+717.065+821.197+715.049+806.298L716.384+619.986C716.384+619.986+714.344+613.545+716.384+603.239L708.278+588.992C708.278+588.992+699.441+582.546+699.441+592.871L698.106+791.453L697.426+795.907Z" fill="none" stroke-linecap="butt" opacity="1" stroke-linejoin="miter"/>
<path d="M547.533+707.336C547.533+707.336+548.213+722.805+546.153+737.646C545.056+745.851+548.888+783.629+545.473+803C545.473+803+544.857+809.484+530.61+803.694C530.61+803.694+444.191+805.6+441.496+803C441.496+803+417.871+803.694+415.83+792.024C415.83+792.024+419.206+703.433+417.191+700.139C417.191+700.139+415.83+651.656+417.191+647.145C417.191+647.145+419.206+602.526+417.871+597.359C417.871+597.359+418.551+587.01+416.511+581.81C416.511+581.81+416.511+575.345+428.018+579.209C428.018+579.209+432.009+586.345+454.318+583.174C454.318+583.174+470.557+585.736+486.1+583.782C486.1+583.782+520.507+581.201+529.319+583.782C529.319+583.782+542.842+581.201+546.828+595.472L546.153+635.536L550.184+648.466L554.94+645.253L556.935+635.536L557.615+592.848C557.615+592.848+560.311+585.061+571.158+583.782C571.158+583.782+588.036+581.81+590.777+583.174C593.472+584.415+629.875+586.345+640.067+584.415C650.169+582.48+652.165+590.875+682.611+576.039C682.611+576.039+690.718+576.69+690.718+581.81C690.718+581.81+687.957+636.862+690.718+647.145C690.718+647.145+690.718+748.014+688.613+755.13L689.993+787.465C689.993+787.465+691.333+801.702+667.748+803C667.748+803+682.611+804.949+589.352+802.368C589.352+802.368+574.514+801.702+558.315+808.795C558.315+808.795+554.94+808.162+554.94+799.767C554.94+799.767+557.615+769.401+554.94+739.595L553.629+706.628L547.533+707.336Z" opacity="1" fill="#ffffff"/>
<path d="M486.732+661.457C486.732+661.457+488.773+709.293+486.732+715.754L486.097+726.126C486.097+726.126+488.773+733.195+492.828+735.819C492.828+735.819+496.224+744.841+488.092+744.214C488.092+744.214+471.239+742.911+467.183+743.525C467.183+743.525+457.691+743.525+467.183+731.954C467.183+731.954+470.559+727.357+469.859+715.754C469.859+715.754+469.859+661.457+471.239+658.248C471.239+658.248+472.574+651.089+467.838+649.14L459.707+649.81L449.624+658.856C449.624+658.856+447.564+668.597+442.833+658.248L442.833+653.024L448.949+637.512L453.005+636.837C453.005+636.837+459.051+640.726+464.443+642.066L496.224+642.066L507.686+636.837C507.686+636.837+512.398+637.512+511.107+643.326C511.107+643.326+513.078+658.248+504.311+660.14C504.311+660.14+498.9+658.248+496.224+651.089C496.224+651.089+487.437+646.601+486.732+661.457" opacity="1" fill="#12110c"/>
<path d="M635.969+643.997C635.969+643.997+610.348+642.043+609.713+668.55C609.713+668.55+606.928+686.704+635.334+698.355C635.334+698.355+656.288+708.01+654.883+720.289C654.883+720.289+652.187+742.284+629.898+731.303C629.898+731.303+619.115+726.098+619.835+720.289C619.835+720.289+616.4+713.154+612.364+714.471C612.364+714.471+607.608+715.735+609.713+737.098C609.713+737.098+609.713+745.512+619.835+737.098L625.162+738.42C625.162+738.42+643.42+752.648+658.919+735.149C658.919+735.149+675.837+720.289+663.65+702.196C663.65+702.196+654.883+689.309+639.37+682.825C639.37+682.825+624.506+676.298+621.156+665.317C621.156+665.317+625.887+645.884+644.081+656.233C644.081+656.233+650.852+664+654.883+665.317C654.883+665.317+660.299+665.317+658.919+653.628L657.643+643.997C657.643+643.997+656.288+636.795+646.796+643.997C646.796+643.997+638.009+647.186+635.969+643.997" opacity="1" fill="#12110c"/>
<path d="M553.603+630.376C558.314+633.671+558.994+640.117+558.994+640.117C572.497+674.367+584.004+724.21+584.004+724.21C587.355+730.613+593.451+735.819+593.451+735.819C604.933+739.679+593.451+742.892+593.451+742.892C588.715+744.865+573.221+742.303+573.221+742.303C565.065+740.919+568.421+738.4+568.421+738.4C571.836+735.167+569.121+722.194+569.121+722.194C568.421+717.075+562.394+708.642+562.394+708.642C559.699+707.334+554.963+713.153+554.963+713.153C554.963+713.153+547.556+715.753+546.831+713.153C546.151+710.524+541.44+708.076+541.44+708.076C533.329+708.076+529.978+727.357+529.978+727.357C534.689+743.543+529.978+740.919+529.978+740.919C525.947+746.148+513.079+742.303+513.079+742.303C507.008+740.919+511.103+736.408+511.103+736.408C518.49+735.167+520.506+727.357+520.506+727.357C523.906+722.846+545.471+638.795+545.471+638.795C547.556+634.888+548.867+627.144+553.603+630.376M542.845+673.046C542.14+676.297+537.384+694.409+537.384+694.409L541.44+700.936C541.44+700.936+552.267+701.525+556.298+701.525C560.309+701.525+561.034+698.354+561.034+695.055C561.034+691.851+553.603+672.456+553.603+672.456L550.187+668.572L542.845+673.046Z" opacity="1" fill="#12110c"/>
<path d="M370.658+473.787C370.658+473.787+363.207+496.472+330.115+473.136L216.666+470.531C216.666+470.531+201.808+475.109+199.768+460.211C199.768+460.211+202.488+430.49+201.083+427.885C201.083+427.885+201.808+419.447+186.925+419.447C186.925+419.447+164+422.091+163.34+402.681C163.34+402.681+159.264+381.922+191.001+382.635C191.001+382.635+201.083+387.146+201.808+374.853C201.808+374.853+200.448+290.793+201.083+284.29C201.083+284.29+203.844+276.608+188.305+275.282C188.305+275.282+165.991+279.774+163.34+265.546C163.34+265.546+161.96+244.245+176.798+242.923C176.798+242.923+195.037+244.245+198.433+239.771C198.433+239.771+202.488+242.272+201.808+226.737L202.488+200.254C202.488+200.254+204.524+193.137+215.942+193.789C215.942+193.789+236.941+195.067+239.656+193.137C239.656+193.137+244.372+187.347+245.663+184.719C245.663+184.719+256.535+184.11+258.55+186.63C258.55+186.63+274.724+197.04+336.246+193.137C336.246+193.137+345.648+193.137+347.689+195.742C347.689+195.742+359.151+204.133+365.903+195.067C365.903+195.067+376.03+193.137+406.446+193.789C406.446+193.789+439.478+202.184+462.473+184.11L469.88+185.436C469.88+185.436+479.327+200.254+486.143+195.742C486.143+195.742+506.372+193.789+509.768+197.692C509.768+197.692+516.539+207.389+513.099+232.636C513.099+232.636+509.087+243.612+528.662+243.612C528.662+243.612+550.926+239.771+548.256+259.732C548.256+259.732+554.347+282.379+517.199+279.165C517.199+279.165+512.443+285.649+513.099+290.165C513.099+290.165+512.443+363.853+511.783+372.31C511.783+372.31+511.128+383.875+527.326+383.286C527.326+383.286+548.936+381.922+549.591+400.751C549.591+400.751+552.287+425.304+521.25+420.75C521.25+420.75+511.783+422.091+510.403+427.885L509.087+460.211C509.087+460.211+509.768+476.387+490.809+472.527C488.113+472.527+385.521+474.438+376.705+471.9C376.705+471.9+371.994+471.249+370.658+473.787" opacity="1" fill="#12110c"/>
<path stroke="#12110c" stroke-width="0.0133333" d="M370.658+473.806C370.658+473.806+363.207+496.495+330.115+473.154L216.647+470.554C216.647+470.554+201.783+475.127+199.748+460.21C199.748+460.21+202.488+430.49+201.083+427.885C201.083+427.885+201.783+419.471+186.901+419.471C186.901+419.471+163.975+422.114+163.32+402.7C163.32+402.7+159.264+381.921+191.001+382.634C191.001+382.634+201.083+387.15+201.783+374.871C201.783+374.871+200.423+290.774+201.083+284.289C201.083+284.289+203.844+276.584+188.286+275.281C188.286+275.281+165.971+279.778+163.32+265.527C163.32+265.527+161.94+244.22+176.798+242.923C176.798+242.923+195.012+244.22+198.433+239.733C198.433+239.733+202.488+242.271+201.783+226.736L202.488+200.23C202.488+200.23+204.504+193.118+215.942+193.788C215.942+193.788+236.921+195.048+239.636+193.118C239.636+193.118+244.372+187.347+245.663+184.718C245.663+184.718+256.51+184.091+258.55+186.629C258.55+186.629+274.704+197.021+336.246+193.118C336.246+193.118+345.648+193.118+347.689+195.718C347.689+195.718+359.151+204.113+365.903+195.048C365.903+195.048+376.05+193.118+406.446+193.788C406.446+193.788+439.503+202.141+462.473+184.091L469.899+185.412C469.899+185.412+479.346+200.23+486.143+195.718C486.143+195.718+506.372+193.788+509.812+197.648C509.812+197.648+516.539+207.37+513.123+232.593C513.123+232.593+509.087+243.612+528.662+243.612C528.662+243.612+550.971+239.733+548.256+259.713C548.256+259.713+554.347+282.378+517.219+279.146C517.219+279.146+512.443+285.63+513.123+290.165C513.123+290.165+512.443+363.852+511.808+372.29C511.808+372.29+511.128+383.894+527.326+383.309C527.326+383.309+548.936+381.921+549.616+400.77C549.616+400.77+552.287+425.304+521.25+420.75C521.25+420.75+511.808+422.114+510.428+427.885L509.087+460.21C509.087+460.21+509.812+476.411+490.834+472.546C488.138+472.546+385.521+474.438+376.705+471.899C376.705+471.899+371.994+471.267+370.658+473.806Z" fill="none" stroke-linecap="butt" opacity="1" stroke-linejoin="miter"/>
<path d="M243.01+207.389C243.01+207.389+244.37+220.295+244.37+223.527C244.37+226.76+242.31+410.424+242.31+410.424C242.31+410.424+244.37+424.695+231.508+431.769C231.508+431.769+228.152+433.09+227.452+424.044L228.832+230.035C228.832+230.035+230.167+206.086+243.01+207.389" opacity="1" fill="#ffffff"/>
<path stroke="#12110c" stroke-width="0.016" d="M243.034+207.368C243.034+207.368+244.389+220.274+244.389+223.507C244.389+226.739+242.329+410.423+242.329+410.423C242.329+410.423+244.389+424.693+231.507+431.81C231.507+431.81+228.151+433.112+227.451+424.066L228.787+230.033C228.787+230.033+230.147+206.084+243.034+207.368Z" fill="none" stroke-linecap="butt" opacity="1" stroke-linejoin="miter"/>
<path d="M220.722+433.701C220.722+433.701+222.037+251.339+221.402+248.082C220.722+244.893+222.037+250.706+222.037+250.706C222.037+250.706+220.066+219.056+228.828+206.088C228.828+206.088+226.113+195.088+210.575+208.646L209.959+235.176C209.959+235.176+209.959+250.055+195.736+249.404C195.736+249.404+179.518+248.734+172.067+255.893C172.067+255.893+168.031+270.097+183.529+267.539C183.529+267.539+207.879+267.539+209.214+277.17L207.879+374.85C207.879+374.85+213.29+391.012+194.356+391.012C194.356+391.012+171.407+389.771+172.067+403.353C172.067+403.353+176.798+414.999+196.417+411.097C196.417+411.097+210.575+413.697+209.959+426.565L209.959+451.204C209.959+451.204+208.534+460.92+222.037+461.51L327.414+461.51C327.414+461.51+332.81+462.156+332.81+455.672C332.81+455.672+332.125+450.571+324.063+450.571L236.305+449.231C236.305+449.231+222.037+453.766+220.722+433.701" opacity="1" fill="#ffffff"/>
<path d="M238.957+435.022C238.957+435.022+236.281+444.111+246.364+442.114L315.928+442.114L334.842+445.979C334.842+445.979+354.481+441.463+334.842+431.095C334.842+431.095+272.709+431.789+267.293+430.487C267.293+430.487+254.495+427.259+251.78+426.603C251.78+426.603+245.008+424.045+238.957+435.022" opacity="1" fill="#ffffff"/>
<path stroke="#12110c" stroke-width="0.016" d="M238.935+435.001C238.935+435.001+236.259+444.128+246.342+442.093L315.931+442.093L334.87+445.996C334.87+445.996+354.504+441.485+334.87+431.098C334.87+431.098+272.707+431.787+267.296+430.447C267.296+430.447+254.473+427.233+251.758+426.606C251.758+426.606+244.982+424.024+238.935+435.001Z" fill="none" stroke-linecap="butt" opacity="1" stroke-linejoin="miter"/>
<path d="M354.461+444.109C354.461+444.109+341.599+444.109+342.274+460.186C342.274+460.186+343.634+472.546+357.112+472.546C357.112+472.546+369.28+470.535+367.964+457.666C367.964+457.666+360.508+441.466+354.461+444.109" opacity="1" fill="#ffffff"/>
<path d="M363.886+437.582C363.886+437.582+369.937+431.117+374.033+431.117C374.033+431.117+441.542+436.954+453.024+429.206C453.024+429.206+463.191+427.276+465.847+429.206C465.847+429.206+475.974+436.954+475.974+441.466C475.974+441.466+475.314+447.341+463.191+444.109C463.191+444.109+386.811+444.717+382.8+444.717C382.8+444.717+361.845+449.229+363.886+437.582" opacity="1" fill="#ffffff"/>
<path stroke="#12110c" stroke-width="0.016" d="M363.864+437.582C363.864+437.582+369.936+431.098+374.011+431.098C374.011+431.098+441.54+436.954+453.023+429.206C453.023+429.206+463.214+427.257+465.865+429.206C465.865+429.206+475.993+436.954+475.993+441.485C475.993+441.485+475.337+447.365+463.214+444.109C463.214+444.109+386.834+444.741+382.778+444.741C382.778+444.741+361.824+449.252+363.864+437.582Z" fill="none" stroke-linecap="butt" opacity="1" stroke-linejoin="miter"/>
<path d="M374.692+456.996C374.692+456.996+374.692+451.852+384.094+451.852L478.713+451.182C478.713+451.182+487.456+455.65+487.456+440.182C487.456+440.182+490.921+369.665+491.228+292.051C491.357+268.967+492.41+244.728+491.492+222.267C491.492+222.267+489.476+212.593+486.78+210.596C486.78+210.596+486.78+200.252+498.307+204.174C498.307+204.174+508.365+204.787+505.689+219.643L506.35+242.289C506.35+242.289+504.334+251.987+522.568+249.406C522.568+249.406+540.782+251.987+541.437+258.452C541.437+258.452+546.898+271.42+525.308+270.099L509.79+270.099C509.79+270.099+503.019+273.963+505.034+281.75L503.019+375.498C503.019+375.498+501.614+391.661+517.877+391.071C517.877+391.071+534.755+390.401+538.086+395.563C538.086+395.563+549.613+411.745+524.608+410.447C524.608+410.447+509.065+409.772+505.689+412.353C505.689+412.353+503.019+415.648+500.978+446C500.978+446+502.314+464.112+488.136+462.158C488.136+462.158+394.261+463.418+385.519+461.507C385.519+461.507+376.027+464.112+374.692+456.996" opacity="1" fill="#ffffff"/>
<path d="M253.094+201.512L251.123+409.121C251.123+409.121+250.443+418.756+267.316+420.705C267.316+420.705+286.935+422.659+291.627+420.705C291.627+420.705+304.424+420.078+337.541+421.38C337.541+421.38+345.653+429.1+346.308+419.45C346.308+419.45+351.724+251.273+349.024+216.372C349.024+216.372+348.368+201.512+336.841+200.86C336.841+200.86+285.555+204.725+280.819+200.86L260.59+195.674C260.59+195.674+252.439+196.287+253.094+201.512" opacity="1" fill="#ffffff"/>
<path stroke="#12110c" stroke-width="0.016" d="M467.183+209.278L466.523+413.655C466.523+413.655+471.939+431.814+480.751+429.879C480.751+429.879+482.086+425.976+482.746+419.468L485.487+224.79C485.487+224.79+478.71+193.743+467.183+209.278" fill="#ffffff" stroke-linecap="butt" opacity="1" stroke-linejoin="miter"/>
<path stroke="#12110c" stroke-width="0.016" d="M467.183+209.278L466.523+413.655C466.523+413.655+471.939+431.814+480.751+429.879C480.751+429.879+482.086+425.976+482.746+419.468L485.487+224.79C485.487+224.79+478.71+193.743+467.183+209.278Z" fill="none" stroke-linecap="butt" opacity="1" stroke-linejoin="miter"/>
<path d="M359.874+211.019C359.874+211.019+357.839+308.656+358.474+311.931L357.198+394.075L354.463+422.45C354.463+422.45+358.474+428.349+361.87+424.442C361.87+424.442+383.504+419.298+397.002+421.214C397.002+421.214+440.246+425.117+448.993+418.628C448.993+418.628+455.744+421.841+457.78+411.493C457.78+411.493+460.455+230.452+459.115+227.201C459.115+227.201+461.835+201.364+460.455+198.807C460.455+198.807+459.775+192.926+448.357+198.07C448.357+198.07+449.668+203.294+385.539+201.364C385.539+201.364+361.214+200.694+359.874+211.019" opacity="1" fill="#ffffff"/>
<path d="M339.009+270.835L332.898+283.176C332.898+283.176+318.099+345.868+310.012+358.774C310.012+358.774+308.652+371.747+297.17+361.374C297.17+361.374+270.804+281.854+269.464+279.254L260.677+273.435C260.677+273.435+255.351+266.324+264.753+265.692L289.738+266.324C289.738+266.324+297.825+272.765+287.043+279.962C287.043+279.962+288.383+290.292+302.561+329.686C302.561+329.686+306.592+344.565+311.328+333.565L324.85+287.644L320.795+274.068C320.795+274.068+316.719+267.603+322.835+266.975C322.835+266.975+337.018+265.692+339.009+270.835" opacity="1" fill="#12110c"/>
<path d="M378.219+281.201L377.494+349.75L375.523+354.913C375.523+354.913+368.752+363.289+373.463+363.959C373.463+363.959+367.437+367.862+416.662+368.489C416.662+368.489+435.621+371.703+430.865+348.428C430.865+348.428+428.85+340.029+422.054+352.331C422.054+352.331+420.038+362.633+395.778+359.424C395.778+359.424+390.362+354.913+390.362+349.75L390.362+321.27C390.362+321.27+389.642+314.13+401.144+314.867C401.144+314.867+413.967+322.592+416.007+319.317C416.007+319.317+420.718+309.011+416.007+302.527C416.007+302.527+409.911+301.918+409.256+304.499C409.256+304.499+405.2+312.219+393.718+307.689C393.718+307.689+388.326+297.364+391.697+288.945C391.697+288.945+390.362+272.768+401.849+274.085C401.849+274.085+415.347+276.647+416.662+280.574C416.662+280.574+420.038+288.361+423.459+279.295L420.038+268.252C420.038+268.252+418.067+263.717+414.667+265.02C414.667+265.02+391.697+268.252+388.962+265.628L370.723+267.601C370.723+267.601+368.052+274.085+376.184+277.28C376.184+277.28+378.219+278.601+378.219+281.201" opacity="1" fill="#12110c"/>
</g>
</g>
</g>
</g>
</svg>
