<?xml version="1.0" encoding="UTF-8" standalone="no"?> <!-- Created with Vectornator for iOS (http://vectornator.io/) --><!DOCTYPE svg PUBLIC "-//W3C//DTD SVG 1.1//EN" "http://www.w3.org/Graphics/SVG/1.1/DTD/svg11.dtd">
<svg height="100%" style="fill-rule:nonzero;clip-rule:evenodd;stroke-linecap:round;stroke-linejoin:round;" xmlns:xlink="http://www.w3.org/1999/xlink" xmlns="http://www.w3.org/2000/svg" xml:space="preserve" width="100%" xmlns:vectornator="http://vectornator.io" version="1.1" viewBox="0 0 1908.04 1909.62">
<metadata>
<vectornator:setting key="DimensionsVisible" value="1"/>
<vectornator:setting key="PencilOnly" value="0"/>
<vectornator:setting key="SnapToPoints" value="0"/>
<vectornator:setting key="OutlineMode" value="0"/>
<vectornator:setting key="CMYKEnabledKey" value="0"/>
<vectornator:setting key="RulersVisible" value="1"/>
<vectornator:setting key="SnapToEdges" value="0"/>
<vectornator:setting key="GuidesVisible" value="1"/>
<vectornator:setting key="DisplayWhiteBackground" value="0"/>
<vectornator:setting key="doHistoryDisabled" value="0"/>
<vectornator:setting key="SnapToGuides" value="1"/>
<vectornator:setting key="TimeLapseWatermarkDisabled" value="0"/>
<vectornator:setting key="Units" value="Points"/>
<vectornator:setting key="DynamicGuides" value="0"/>
<vectornator:setting key="IsolateActiveLayer" value="0"/>
<vectornator:setting key="SnapToGrid" value="0"/>
</metadata>
<defs/>
<g id="Untitled" vectornator:layerName="Untitled">
<g opacity="1">
<path d="M907.728+57.8464C1191.02+41.0996+1418.65+155.985+1565.77+295.625C1710.39+432.898+1841.5+635.121+1853.31+903.897C1866.43+1202.33+1757.5+1404.77+1615.53+1561.94C1479.22+1712.84+1275.1+1837.71+1007.26+1849.48C722.498+1862+508.519+1754.64+349.224+1611.7C194.587+1472.95+73.2566+1276.1+58.9125+1006.2C43.4873+716.01+158.52+492.114+293.927+345.393C395.602+235.221+535.529+138.025+708.657+88.26C771.243+70.2717+843.337+61.6536+907.728+57.8464ZM316.046+342.628C181.684+488.804+57.8314+693.261+69.972+981.313C81.0397+1243.95+193.164+1447.74+343.694+1592.35C488.571+1731.53+701.532+1849.05+985.144+1838.42C1244.18+1828.72+1452.41+1714.36+1596.18+1564.7C1736.13+1419.03+1853.52+1207.96+1842.25+926.016C1831.55+658.316+1716.5+451.534+1568.53+314.979C1423.55+181.182+1207.02+55.5764+927.082+68.9059C648.701+82.1607+455.337+191.088+316.046+342.628Z" fill-rule="evenodd" fill="#152752" opacity="1"/>
<path d="M943.671+168.441C963.429+178.174+1010.82+160.277+1021.09+179.501C1020.12+192.308+1003.25+180.98+996.204+182.266C989.767+209.007+995.272+247.691+993.439+279.036C984.224+279.036+975.006+279.036+965.79+279.036C969.628+249.695+971.01+217.899+971.32+185.03C965.229+177.347+951.618+185.418+943.671+185.03C943.671+179.501+943.671+173.971+943.671+168.441Z" fill-rule="evenodd" fill="#152752" opacity="1"/>
<path d="M893.904+171.206C924.912+193.651+927.524+244.492+951.966+273.506C945.098+277.698+935.186+278.845+924.317+279.036C921.033+268.494+916.968+258.736+913.258+248.623C900.639+247.063+896.038+253.522+882.844+251.387C870.704+258.601+882.974+290.226+857.96+284.566C870.128+246.966+876.242+203.312+893.904+171.206ZM885.609+240.328C895.283+240.787+903.307+239.592+907.728+234.798C898.338+230.363+903.246+211.631+891.139+209.914C891.122+221.878+884.722+227.457+885.609+240.328Z" fill-rule="evenodd" fill="#152752" opacity="1"/>
<path d="M841.371+176.736C850.08+175.4+843.442+189.41+849.666+190.56C846.583+197.616+828.279+189.451+824.782+196.09C826.432+231.303+835.59+259.013+841.371+290.096C831.697+289.637+823.673+290.831+819.252+295.625C810.078+267.012+805.524+233.778+799.898+201.62C788.216+200.998+782.042+205.883+772.249+207.149C774.248+198.7+769.424+197.074+769.484+190.56C796.417+188.923+820.618+184.555+841.371+176.736Z" fill-rule="evenodd" fill="#152752" opacity="1"/>
<path d="M1081.91+176.736C1097.73+183.037+1117.17+185.716+1137.21+187.795C1137.27+194.309+1132.45+195.935+1134.45+204.385C1125.52+200.406+1113.93+199.093+1104.03+196.09C1099.17+204.127+1097.73+215.596+1095.74+226.504C1103.94+231.209+1118.5+229.545+1128.92+232.033C1130.05+238.694+1123.87+238.044+1126.15+245.858C1113.28+246.745+1107.7+240.344+1095.74+240.328C1089.59+248.924+1088.26+262.342+1087.44+276.271C1095.68+284.624+1123.92+272.978+1117.86+295.625C1098.19+293.178+1082.5+286.75+1059.8+287.331C1067.43+250.729+1074.52+213.581+1081.91+176.736Z" fill-rule="evenodd" fill="#152752" opacity="1"/>
<path d="M1151.04+190.56C1173.36+200.492+1198.39+207.716+1225.69+212.679C1226.82+219.34+1220.64+218.69+1222.92+226.504C1211.23+227.137+1205.16+222.149+1198.04+218.209C1186.6+246.402+1176.46+275.892+1170.39+309.45C1159.07+310.639+1152.68+306.887+1145.51+303.92C1153.46+273.169+1162.05+243.046+1173.16+215.444C1170.37+207.166+1156.49+209.986+1148.27+207.149C1146.27+198.692+1153.04+199.018+1151.04+190.56Z" fill-rule="evenodd" fill="#152752" opacity="1"/>
<path d="M758.425+196.09C758.654+200.467+757.095+206.635+761.19+207.149C756.116+216.821+738.109+213.558+728.011+218.209C730.992+228.129+734.968+237.057+736.306+248.623C748.17+246.662+759.442+244.11+766.72+237.563C770.684+240.972+771.959+247.071+772.249+254.152C760.286+254.169+754.706+260.57+741.836+259.682C743.663+274.444+748.167+286.529+752.895+298.39C764.231+294.981+772.172+288.174+786.074+287.331C786.303+291.707+784.744+297.876+788.838+298.39C774.677+309.112+749.876+309.195+733.541+317.744C722.974+283.153+714.367+246.601+700.363+215.444C718.978+208.253+737.73+201.199+758.425+196.09Z" fill-rule="evenodd" fill="#152752" opacity="1"/>
<path d="M1045.97+215.444C1047.77+225.533+1044.11+230.17+1040.44+234.798C1029.46+236.568+1025.52+231.287+1021.09+226.504C1020.05+210.395+1036.75+206.431+1045.97+215.444Z" fill-rule="evenodd" fill="#152752" opacity="1"/>
<path d="M714.187+326.039C704.601+327.513+699.464+333.435+689.303+334.334C681.373+295.26+663.017+266.614+650.595+232.033C657.944+230.167+664.674+227.681+669.949+223.739C689.787+252.748+698.493+292.888+714.187+326.039Z" fill-rule="evenodd" fill="#152752" opacity="1"/>
<path d="M1278.22+237.563C1288.89+237.956+1291+246.906+1303.1+245.858C1289.78+274.927+1273.47+301.011+1261.63+331.569C1266.79+341.157+1281.29+341.406+1289.28+348.158C1278.71+374.933+1254.81+335.216+1233.98+337.098C1247.06+302.25+1265.44+272.702+1278.22+237.563Z" fill-rule="evenodd" fill="#152752" opacity="1"/>
<path d="M620.181+317.744C624.702+335.343+636.887+345.277+642.3+361.982C628.484+359.226+628.766+370.567+617.416+370.277C605.027+333.819+582.101+307.899+570.414+270.741C593.619+267.219+600.125+246.997+631.241+251.387C657.043+265.613+649.528+313.384+620.181+317.744ZM595.298+273.506C603.318+283.916+603.954+301.716+617.416+306.685C632.723+299.377+622.155+276.263+614.652+267.977C606.83+268.449+595.685+265.599+595.298+273.506Z" fill-rule="evenodd" fill="#152752" opacity="1"/>
<path d="M1239.51+267.977C1242.88+284.392+1220.5+284.834+1214.63+276.271C1208.83+257.213+1236.65+254.581+1239.51+267.977Z" fill-rule="evenodd" fill="#152752" opacity="1"/>
<path d="M1350.11+273.506C1359.34+275.328+1363.63+282.102+1372.23+284.566C1356.36+318.466+1332.44+344.317+1316.93+378.571C1307.69+376.749+1303.41+369.975+1294.81+367.512C1311.68+334.621+1332.98+306.148+1350.11+273.506Z" fill-rule="evenodd" fill="#152752" opacity="1"/>
<path d="M1449.64+337.098C1450.95+345.78+1442.2+344.403+1441.35+350.923C1434.98+345.313+1427.31+341.002+1421.99+334.334C1401.42+358.001+1383.4+384.212+1366.7+411.75C1356.6+409.864+1353.21+401.268+1344.58+397.926C1362.26+371.377+1384.03+348.902+1399.87+320.509C1394.34+315.908+1389.63+310.475+1380.52+309.45C1378.46+300.939+1388.11+304.136+1386.05+295.625C1411.08+305.615+1424.77+326.946+1449.64+337.098Z" fill-rule="evenodd" fill="#152752" opacity="1"/>
<path d="M509.586+309.45C516.692+309.718+513.54+320.241+520.646+320.509C513.825+329.354+501.214+332.415+492.997+339.863C498.345+349.261+503.645+358.709+512.351+364.747C523.975+362.541+530.757+343.881+542.765+350.923C542.314+354.138+543.376+355.841+545.53+356.452C539.259+364.93+528.075+368.491+520.646+375.807C532.068+404.868+549.544+409.618+570.414+386.866C571.6+392.13+576.369+393.811+575.943+400.69C556.382+406.934+546.608+422.967+531.705+433.869C510.466+403.497+489.403+372.95+465.349+345.393C479.413+332.733+498.068+324.659+509.586+309.45Z" fill-rule="evenodd" fill="#152752" opacity="1"/>
<path d="M573.179+323.274C574.771+329.055+580.033+331.165+578.708+339.863C573.831+347.113+558.702+347.113+553.824+339.863C551.889+325.945+559.559+321.637+573.179+323.274Z" fill-rule="evenodd" fill="#152752" opacity="1"/>
<path d="M1134.45+1559.17C1133.02+1542.36+1161.7+1540.6+1178.69+1534.29C1298.34+1489.8+1393.79+1412.67+1463.47+1310.33C1541.2+1196.17+1602.81+1041.23+1568.53+848.6C1539.95+687.991+1460.62+572.618+1352.87+480.872C1249.75+393.062+1104.87+325.367+916.023+337.098C747.686+347.555+622.695+421.25+526.176+511.285C429.118+601.824+359.783+731.955+343.694+892.838C310.43+1225.49+515.741+1455.83+750.13+1537.05C764.383+1541.99+786.45+1544.74+794.368+1561.94C776.891+1566.68+757.007+1556.71+741.836+1550.88C622.07+1504.82+524.752+1429.73+451.524+1332.45C367.931+1221.41+307.278+1066.88+329.87+876.248C358.531+634.388+514.901+463.376+705.892+378.571C777.403+346.82+856.138+323.974+951.966+323.274C1158.86+321.764+1304.29+410.166+1413.7+519.58C1522.74+628.618+1602.31+787.322+1590.65+997.903C1582.24+1149.86+1519.49+1269.43+1441.35+1360.1C1361.91+1452.28+1265.59+1528.84+1134.45+1559.17Z" fill-rule="evenodd" fill="#152752" opacity="1"/>
<path d="M940.906+350.923C960.858+379.816+971.809+417.714+985.144+453.223C978.749+445.844+963.935+455.12+960.261+450.458C958.555+440.184+953.672+433.084+951.966+422.809C939.549+421.452+931.249+424.211+921.552+425.574C915.002+435.614+920.853+458.053+899.433+453.223C915.528+421.391+917.438+375.381+940.906+350.923ZM927.082+414.515C936.06+416.118+939.944+412.632+946.436+411.75C942.972+402.311+940.494+391.887+935.377+384.101C933.687+395.313+925.841+400.37+927.082+414.515Z" fill-rule="evenodd" fill="#152752" opacity="1"/>
<path d="M1463.47+350.923C1474.94+367.056+1512.7+377.134+1499.41+400.69C1489.96+393.554+1481.66+385.26+1474.53+375.807C1468.18+385.124+1458.58+391.193+1452.41+400.69C1462.01+405.833+1465.22+417.371+1477.29+420.045C1476.44+426.564+1467.69+425.187+1469+433.869C1459.03+428.165+1454.08+417.454+1444.11+411.75C1434.24+418.466+1426.95+427.764+1419.23+436.634C1425.99+445.537+1433.09+454.105+1444.11+458.753C1428.61+483.999+1410.7+439.238+1391.58+433.869C1413.07+403.748+1441.3+380.369+1463.47+350.923Z" fill-rule="evenodd" fill="#152752" opacity="1"/>
<path d="M1007.26+353.688C1023.31+356.992+1039.5+360.163+1059.8+359.217C1060.93+365.878+1054.75+365.228+1057.03+373.042C1047.93+372.926+1043.26+368.375+1032.15+370.277C1023.87+373.058+1026.69+386.938+1023.85+395.161C1031.66+399.336+1042.94+400.041+1054.27+400.69C1055.4+407.351+1049.22+406.701+1051.5+414.515C1044.98+410.901+1032.39+413.348+1026.62+408.985C1018.15+414.343+1022.2+432.218+1018.32+442.163C1023.05+448.492+1039.43+443.178+1048.74+444.928C1048.74+449.537+1048.74+454.144+1048.74+458.753C1028.72+458.496+1015.09+451.854+993.439+453.223C1001.48+423.476+1002.45+386.659+1007.26+353.688Z" fill-rule="evenodd" fill="#152752" opacity="1"/>
<path d="M844.136+364.747C847.188+394.873+855.649+419.591+857.96+450.458C869.202+451.442+881.144+438.779+891.139+447.693C889.601+469.196+852.132+454.769+841.371+467.047C834.127+434.66+827.201+401.957+822.017+367.512C830.92+368.12+833.715+362.621+844.136+364.747Z" fill-rule="evenodd" fill="#152752" opacity="1"/>
<path d="M448.759+505.756C424.105+480.642+404.015+450.964+374.108+431.104C396.489+411.402+414.08+373.086+454.289+381.336C481.581+386.935+506.598+423.122+498.527+455.988C493.199+477.689+465.752+489.387+448.759+505.756ZM401.757+422.809C424.663+440.455+439.55+466.118+462.584+483.637C515.818+447.992+429.087+361.186+401.757+422.809Z" fill-rule="evenodd" fill="#152752" opacity="1"/>
<path d="M1142.74+381.336C1150.56+379.053+1149.91+385.232+1156.57+384.101C1154.98+410.567+1158.47+431.969+1159.33+455.988C1181.63+444.903+1196.34+412.17+1217.39+408.985C1217.47+411.675+1220.78+411.131+1222.92+411.75C1217.75+447.126+1204.02+473.951+1198.04+508.52C1189.58+506.845+1183.63+502.651+1175.92+500.226C1183.09+484.35+1185.71+463.937+1192.51+447.693C1174.44+447.403+1158.37+486.938+1139.98+486.401C1136.03+467.313+1137.34+442.957+1137.21+420.045C1121.23+432.63+1121.12+461.092+1104.03+472.577C1103.96+469.887+1100.65+470.432+1098.5+469.812C1103.9+441.843+1132.31+413.436+1142.74+381.336Z" fill-rule="evenodd" fill="#152752" opacity="1"/>
<path d="M810.957+458.753C789.698+518.886+692.356+492.927+708.657+422.809C721.931+365.72+835.413+375.668+810.957+458.753ZM761.19+480.872C809.346+486.001+789.961+392.211+750.13+400.69C713.192+408.556+731.766+477.736+761.19+480.872Z" fill-rule="evenodd" fill="#152752" opacity="1"/>
<path d="M1098.5+417.28C1098.93+424.159+1094.16+425.84+1092.97+431.104C1082.89+432.898+1078.25+429.24+1073.62+425.574C1069.35+403.9+1094.62+401.683+1098.5+417.28Z" fill-rule="evenodd" fill="#152752" opacity="1"/>
<path d="M1496.65+467.047C1481.33+474.767+1474.31+490.789+1457.94+497.461C1456.96+488.295+1449.66+485.467+1444.11+480.872C1473.41+457.636+1498.25+429.943+1529.82+408.985C1546.85+427.355+1582.42+464.41+1543.65+483.637C1532.97+484.181+1523.27+483.736+1516+480.872C1507.38+498.058+1501.98+518.463+1496.65+538.934C1490.09+530.747+1480.85+525.234+1477.29+514.05C1485.5+500.143+1488.82+481.336+1496.65+467.047ZM1507.7+464.282C1520.12+472.519+1534.41+462.521+1540.88+455.988C1541.54+444.268+1540.66+434.087+1532.59+431.104C1527.19+443.806+1504.1+451.581+1507.7+464.282Z" fill-rule="evenodd" fill="#152752" opacity="1"/>
<path d="M716.952+514.05C708.093+515.33+707.203+524.579+697.598+525.11C691.839+510.591+682.405+499.75+675.479+486.401C660.49+488.926+655.046+500.992+642.3+505.756C649.146+520.105+657.748+532.702+667.184+544.464C661.898+551.157+654.933+556.173+645.065+558.288C634.097+524.098+608.967+504.069+595.298+472.577C605.212+473.277+605.428+464.274+614.652+464.282C620.458+475.065+626.604+485.508+634.006+494.696C647.037+490.217+656.313+481.983+667.184+475.342C661.989+461.183+649.45+454.368+645.065+439.399C652.129+439.089+654.742+434.331+658.89+431.104C684.343+452.653+698.651+485.348+716.952+514.05Z" fill-rule="evenodd" fill="#152752" opacity="1"/>
<path d="M1300.34+455.988C1292.63+491.597+1282.24+524.521+1275.46+561.053C1269.14+556.308+1261.49+552.902+1256.1+547.229C1255.24+536.233+1262.49+533.341+1261.63+522.345C1258.81+511.343+1247.64+508.684+1239.51+502.991C1226.53+507.088+1217.78+527.183+1203.57+514.05C1230.05+490.764+1263.17+474.12+1289.28+450.458C1293.37+451.899+1296.25+454.547+1300.34+455.988ZM1250.57+491.931C1251.21+501.437+1258.8+503.978+1267.16+505.756C1265.1+495.246+1278.48+485.948+1269.93+478.107C1262.68+481.922+1260.41+490.709+1250.57+491.931Z" fill-rule="evenodd" fill="#152752" opacity="1"/>
<path d="M407.286+483.637C408.647+495.136+404.007+500.632+396.227+502.991C388.12+502.803+385.958+496.67+382.402+491.931C381.247+477.731+400.584+474.239+407.286+483.637Z" fill-rule="evenodd" fill="#152752" opacity="1"/>
<path d="M1327.99+549.993C1318.46+560.738+1306.74+569.298+1300.34+583.172C1293.05+577.562+1284.18+573.531+1280.99+563.818C1308.6+545.348+1326.29+516.956+1350.11+494.696C1376.44+504.719+1412.74+569.143+1347.34+563.818C1340.08+578.676+1337.42+598.133+1333.52+616.35C1325.9+611.061+1319.45+604.611+1314.16+596.996C1319.4+581.958+1321.73+564.011+1327.99+549.993ZM1333.52+547.229C1352.57+557.514+1374.62+538.705+1363.93+519.58C1347.98+522.986+1340.39+534.745+1333.52+547.229Z" fill-rule="evenodd" fill="#152752" opacity="1"/>
<path d="M581.473+514.05C491.67+524.996+614.19+642.741+625.711+555.523C643.981+581.972+601.734+613.251+567.649+605.291C543.384+599.623+527.721+570.282+531.705+536.169C538.374+521.217+569.722+480.8+581.473+514.05Z" fill-rule="evenodd" fill="#152752" opacity="1"/>
<path d="M360.283+502.991C414.165+517.094+417.624+608.938+360.283+619.115C326.751+625.065+302.771+603.82+288.397+577.642C285.928+526.326+307.43+498.982+360.283+502.991ZM302.221+549.993C301.123+593.54+386.282+623.489+387.932+572.112C388.869+542.863+347.562+519.572+324.34+525.11C307.206+529.196+302.547+537.035+302.221+549.993Z" fill-rule="evenodd" fill="#152752" opacity="1"/>
<path d="M1557.47+505.756C1557.44+513.099+1558.52+521.546+1554.71+525.11C1544.62+526.904+1539.98+523.246+1535.35+519.58C1532.72+505.52+1547.17+498.152+1557.47+505.756Z" fill-rule="evenodd" fill="#152752" opacity="1"/>
<path d="M1587.89+536.169C1676.77+521.911+1670.66+653.601+1590.65+649.529C1565.01+648.224+1524.88+624.949+1538.12+572.112C1541.59+558.269+1560.96+540.488+1587.89+536.169ZM1551.94+605.291C1559.44+655.092+1670.64+610.586+1632.12+561.053C1599.33+546.095+1546.86+571.548+1551.94+605.291Z" fill-rule="evenodd" fill="#152752" opacity="1"/>
<path d="M1419.23+563.818C1426.45+583.374+1450.34+589.08+1449.64+610.821C1448.62+642.642+1402.37+647.45+1386.05+619.115C1374.44+625.933+1363.59+633.515+1355.64+643.999C1348.12+640.452+1347.68+629.837+1339.05+627.41C1363.9+604.337+1394.92+587.435+1419.23+563.818ZM1394.35+613.586C1405.81+624.562+1422.14+615.911+1430.29+608.056C1430.73+599.319+1430.39+591.37+1424.76+588.702C1415.53+597.909+1401.69+602.498+1394.35+613.586Z" fill-rule="evenodd" fill="#152752" opacity="1"/>
<path d="M506.822+594.231C492.027+591.42+486.663+598.036+481.938+605.291C482.126+613.397+488.258+615.56+492.997+619.115C513.278+617.849+517.726+606.272+534.47+608.056C570.521+611.896+570.411+662.612+540+677.178C532.723+674.316+530.688+666.215+523.411+663.353C536.926+660.279+551.292+658.056+553.824+643.999C551.035+638.494+549.044+632.19+542.765+630.175C515.351+641.674+474.909+649.949+470.878+616.35C468.937+600.176+479.322+588.467+492.997+577.642C498.541+582.237+505.848+585.066+506.822+594.231Z" fill-rule="evenodd" fill="#152752" opacity="1"/>
<path d="M321.575+732.475C285.557+721.49+257.262+702.783+219.275+693.767C222.297+626.055+296.888+591.655+332.635+641.234C351.942+668.012+332.367+702.374+321.575+732.475ZM238.629+671.648C264.843+684.142+291.983+695.71+318.81+707.591C358.749+654.984+248.906+610.428+238.629+671.648Z" fill-rule="evenodd" fill="#152752" opacity="1"/>
<path d="M1471.76+638.469C1477.71+643.582+1479.06+653.289+1485.59+657.823C1460.45+675.148+1384+692.547+1424.76+732.475C1463.85+736.531+1478.73+701.672+1507.7+704.826C1506.86+739.843+1372.91+773.448+1397.11+688.237C1405.03+660.339+1451.52+660.301+1471.76+638.469Z" fill-rule="evenodd" fill="#152752" opacity="1"/>
<path d="M1679.13+641.234C1687.7+656.991+1705.77+677.288+1701.25+696.532C1693.87+727.918+1635.01+726.022+1634.89+685.472C1617.42+689.202+1605.35+698.332+1587.89+702.061C1588.75+691.065+1581.5+688.173+1582.36+677.178C1616.02+666.602+1647.13+653.474+1679.13+641.234ZM1643.18+679.942C1645.23+702.576+1689.9+696.33+1684.66+671.648C1684.07+668.546+1681.59+667.343+1679.13+666.118C1669.63+673.21+1655.36+675.527+1643.18+679.942Z" fill-rule="evenodd" fill="#152752" opacity="1"/>
<path d="M504.057+671.648C507.424+688.063+485.04+688.505+479.173+679.942C474.674+662.184+500.421+657.486+504.057+671.648Z" fill-rule="evenodd" fill="#152752" opacity="1"/>
<path d="M415.581+693.767C450.512+700.308+481.296+710.997+515.116+718.651C512.761+726.434+506.186+729.995+506.822+740.77C487.769+735.859+471.511+728.153+451.524+724.18C456.448+739.561+483.467+756.728+492.997+776.713C475.167+782.843+446.229+777.869+423.875+779.478C438.745+794.101+466.631+795.705+479.173+812.656C469.084+824.835+447.664+807.533+432.17+798.832C416.496+790.029+392.887+780.163+387.932+765.653C402.227+753.223+440.581+764.846+459.819+757.359C458.077+735.135+409.885+723.768+415.581+693.767Z" fill-rule="evenodd" fill="#152752" opacity="1"/>
<path d="M1706.78+715.886C1723.07+732.771+1721.53+767.492+1731.66+790.537C1723.2+788.533+1723.53+795.307+1715.07+793.302C1716.97+782.185+1712.42+777.52+1712.31+768.418C1681.63+775.53+1650.2+781.889+1623.83+793.302C1615.78+789.373+1616.24+776.929+1612.77+768.418C1642.59+760.447+1673.71+753.784+1704.01+746.299C1705.71+733.537+1697.8+730.387+1698.48+718.651C1702.41+718.888+1706.31+719.107+1706.78+715.886Z" fill-rule="evenodd" fill="#152752" opacity="1"/>
<path d="M269.043+729.71C275.438+741.895+270.226+755.791+252.453+751.829C244.751+740.698+250.529+723.398+269.043+729.71Z" fill-rule="evenodd" fill="#152752" opacity="1"/>
<path d="M1477.29+782.243C1463+786.387+1452.26+794.079+1435.82+796.067C1433.09+789.578+1430.97+782.483+1430.29+773.948C1466.2+768.385+1493.27+753.988+1527.06+746.299C1527.49+769.925+1546.29+788.447+1532.59+809.891C1518.99+818.498+1496.21+816.397+1488.35+804.362C1474.78+815.675+1461.77+827.553+1452.41+843.07C1428.15+816.947+1466.49+798.987+1477.29+782.243ZM1485.59+779.478C1487.58+805.633+1534.02+795.202+1521.53+771.183C1507.77+772.17+1499.78+778.922+1485.59+779.478Z" fill-rule="evenodd" fill="#152752" opacity="1"/>
<path d="M938.142+793.302C919.7+788.068+889.693+773.403+871.785+785.008C870.524+798.011+882.026+788.583+888.374+790.537C902.494+794.884+915.851+808.863+929.847+812.656C913.891+827.114+880.245+823.882+855.195+829.245C846.475+823.221+850.517+804.434+849.666+790.537C862.456+743.537+930.859+759.206+938.142+793.302ZM888.374+807.126C884.285+805.686+881.404+803.037+877.314+801.597C872.169+810.826+887.254+813.237+888.374+807.126Z" fill-rule="evenodd" fill="#152752" opacity="1"/>
<path d="M202.686+760.124C206.822+766.126+218.545+764.539+219.275+773.948C210.845+773.813+205.199+776.461+202.686+782.243C199.285+797.624+208.937+799.952+216.51+804.362C236.987+797.701+237.462+775.283+255.218+771.183C298.27+761.238+316.546+812.275+288.397+840.305C279.9+839.586+275.963+834.308+269.043+832.01C276.928+826.071+287.142+822.46+291.162+812.656C289.27+804.409+287.811+795.732+280.102+793.302C256.294+794.378+251.588+814.556+235.864+823.716C189.995+836.415+181.07+781.889+202.686+760.124Z" fill-rule="evenodd" fill="#152752" opacity="1"/>
<path d="M1690.19+823.716C1643.46+837.935+1691.1+769.875+1690.19+823.716L1690.19+823.716Z" fill-rule="evenodd" fill="#152752" opacity="1"/>
<path d="M374.108+820.951C399.158+834.239+446.177+822.46+462.584+845.835C476.831+866.134+467.552+899.896+445.994+912.192C411.384+915.465+390.772+904.746+360.283+903.897C361.956+897.275+364.259+891.281+363.048+881.778C392.735+882.256+421.409+896.222+451.524+887.308C478.656+834.175+396.304+848.143+371.343+829.245C374.583+828.798+373.674+824.205+374.108+820.951Z" fill-rule="evenodd" fill="#152752" opacity="1"/>
<path d="M1543.65+920.486C1537.1+914.896+1551.19+903.911+1549.18+890.073C1543.28+849.578+1446.39+854.906+1469+912.192C1482.75+913.038+1494.36+911.755+1504.94+909.427C1502.81+919.848+1508.31+922.643+1507.7+931.546C1490.82+929.408+1481.84+935.168+1466.23+934.311C1415.21+865.114+1516.83+803.377+1551.94+862.424C1560.8+877.321+1571.09+924.161+1543.65+920.486Z" fill-rule="evenodd" fill="#152752" opacity="1"/>
<path d="M202.686+848.6C202.39+861.205+184.352+856.07+188.861+873.483C188.394+880.404+193.108+882.137+197.156+884.543C222.427+878.662+234.125+837.933+269.043+848.6C286.428+853.911+297.692+891.391+280.102+914.956C273.682+911.238+264.403+910.381+257.983+906.662C278.38+903.167+288.253+874.241+266.278+865.189C242.398+872.682+234.017+914.721+197.156+903.897C181.004+899.155+159.479+843.327+202.686+848.6Z" fill-rule="evenodd" fill="#152752" opacity="1"/>
<path d="M1634.89+856.894C1669.53+864.647+1725.02+851.558+1745.48+873.483C1727.49+892.354+1695.85+897.582+1676.36+914.956C1698.48+927.86+1727.28+934.081+1751.01+945.37C1748.69+948.58+1747.37+952.783+1748.25+959.194C1709.02+961.437+1677.61+971.504+1640.42+975.784C1640.42+967.489+1640.42+959.194+1640.42+950.9C1664.25+949.849+1683.96+944.673+1706.78+942.605C1686.75+929.455+1658.2+924.824+1637.65+912.192C1652.81+894.17+1679.18+887.36+1701.25+876.248C1687.81+865.717+1656.8+872.77+1634.89+870.719C1634.89+866.11+1634.89+861.503+1634.89+856.894Z" fill-rule="evenodd" fill="#152752" opacity="1"/>
<path d="M1231.22+981.313C1241.36+981.313+1251.49+981.313+1261.63+981.313C1261.63+986.843+1261.63+992.373+1261.63+997.903C1243.77+996.41+1219.72+1001.11+1206.33+995.138C1210+967.47+1235.64+961.774+1242.28+937.075C1242.47+919.154+1218.67+930.904+1211.86+926.016C1218.93+895.873+1267.19+908.042+1258.87+948.135C1255.8+962.921+1239.27+966.115+1231.22+981.313Z" fill-rule="evenodd" fill="#152752" opacity="1"/>
<path d="M1283.75+912.192C1301.26+912.192+1318.77+912.192+1336.28+912.192C1336.47+929.508+1327.13+947.74+1319.69+961.959C1312.87+975.001+1304.77+995.558+1292.05+995.138C1282.9+978.25+1311.89+952.589+1316.93+931.546C1311.5+924.067+1289.44+933.232+1283.75+926.016C1283.75+921.407+1283.75+916.801+1283.75+912.192Z" fill-rule="evenodd" fill="#152752" opacity="1"/>
<path d="M656.125+917.721C656.125+946.291+656.125+974.863+656.125+1003.43C650.595+1003.43+645.065+1003.43+639.535+1003.43C639.535+980.393+639.535+957.35+639.535+934.311C637.036+924.266+623.928+940.073+622.946+931.546C620.513+913.444+643.475+920.741+656.125+917.721Z" fill-rule="evenodd" fill="#152752" opacity="1"/>
<path d="M700.363+917.721C713.769+920.904+740.221+911.041+744.601+923.251C744.993+934.703+725.363+926.132+716.952+928.781C716.952+935.231+716.952+941.684+716.952+948.135C724.494+952.573+738.266+950.781+744.601+956.43C760.546+991.986+724.707+1019.4+694.833+1000.67C694.595+996.744+694.377+992.837+697.598+992.373C699.486+979.48+715.522+997.433+722.482+989.608C727.942+987.697+729.853+982.234+730.776+975.784C729.12+961.771+713.388+961.835+697.598+961.959C695.93+944.624+699.688+932.715+700.363+917.721Z" fill-rule="evenodd" fill="#152752" opacity="1"/>
<path d="M175.037+923.251C183.547+925.186+180.351+925.186+188.861+923.251C188.861+934.311+188.861+945.37+188.861+956.43C193.592+962.756+209.966+957.444+219.275+959.194C222.17+949.186+213.002+927.116+224.805+926.016C240.598+923.127+230.052+946.573+233.099+956.43C239.644+962.789+257.914+957.419+269.043+959.194C276.137+950.079+268.639+937.084+269.043+926.016C274.572+926.016+280.102+926.016+285.632+926.016C282.228+938.342+280.185+966.568+285.632+978.549C254.287+984.988+210.989+979.478+175.037+981.313C175.037+961.959+175.037+942.605+175.037+923.251Z" fill-rule="evenodd" fill="#152752" opacity="1"/>
<path d="M445.994+926.016C450.603+926.016+455.21+926.016+459.819+926.016C459.819+944.449+459.819+962.88+459.819+981.313C433.84+976.859+388.988+976.599+363.048+981.313C356.772+978.374+361.995+963.933+360.283+956.43C387.13+959.993+418.232+959.308+448.759+959.194C450.62+945.353+446.199+937.794+445.994+926.016Z" fill-rule="evenodd" fill="#152752" opacity="1"/>
<path d="M1563+959.194C1559.16+974.705+1557.49+992.395+1557.47+1011.73C1542.42+1012.97+1545.31+990.977+1549.18+981.313C1543.94+976.409+1530.92+979.298+1521.53+978.549C1512.36+983.202+1522.2+1006.86+1510.47+1008.96C1500.52+1010.66+1506.95+989.904+1507.7+978.549C1502.07+972.203+1484.74+977.548+1474.53+975.784C1468.2+980.517+1473.51+996.888+1471.76+1006.2C1448.03+1007.93+1466.06+976.992+1460.7+956.43C1492.17+949.202+1529.52+959.288+1563+959.194Z" fill-rule="evenodd" fill="#152752" opacity="1"/>
<path d="M445.994+995.138C445.53+989.141+455.801+993.885+459.819+992.373C464.82+1007.65+463.004+1029.74+468.113+1044.91C434.186+1048.77+399.434+1051.8+368.578+1058.73C369.789+1049.22+367.486+1043.24+365.813+1036.61C391.435+1029.98+424.323+1030.61+451.524+1025.55C451.931+1013.16+451.226+1001.89+445.994+995.138Z" fill-rule="evenodd" fill="#152752" opacity="1"/>
<path d="M1637.65+992.373C1676.98+992.677+1709.69+999.597+1748.25+1000.67C1743.89+1018.43+1745.69+1042.35+1739.95+1058.73C1735.22+1059.31+1732.79+1054.02+1731.66+1058.73C1723.19+1050.08+1734.08+1037.33+1731.66+1025.55C1724.93+1020.3+1709.58+1023.66+1701.25+1020.02C1695.95+1026.7+1699.5+1042.24+1698.48+1053.2C1692.95+1053.2+1687.42+1053.2+1681.89+1053.2C1686.1+1045.43+1684.52+1031.87+1687.42+1022.79C1682.59+1012.88+1660.38+1020.34+1651.48+1014.49C1645.12+1021.03+1650.49+1039.31+1648.71+1050.44C1642.2+1050.5+1640.57+1045.67+1632.12+1047.67C1636.92+1032.19+1638.28+1013.28+1637.65+992.373Z" fill-rule="evenodd" fill="#152752" opacity="1"/>
<path d="M285.632+1000.67C285.632+1008.96+285.632+1017.26+285.632+1025.55C268.034+1024.54+257.369+1030.47+238.629+1028.32C232.143+1040.57+239.978+1059.3+241.394+1072.55C261.893+1074.95+281.421+1063.62+293.927+1067.02C293.927+1075.32+293.927+1083.61+293.927+1091.91C253.15+1090.76+224.581+1101.82+186.097+1102.97C187.999+1091.85+183.448+1087.19+183.332+1078.08C199.31+1079.31+211.663+1076.92+224.805+1075.32C225.576+1057.96+224.078+1042.87+219.275+1031.08C205.76+1034.16+192.127+1037.11+177.802+1039.38C179.704+1028.26+175.153+1023.59+175.037+1014.49C210.649+1008.63+249.669+1006.18+285.632+1000.67Z" fill-rule="evenodd" fill="#152752" opacity="1"/>
<path d="M1457.94+1020.02C1487.46+1031.97+1529.04+1031.87+1554.71+1047.67C1539.59+1074.03+1503.02+1078.93+1477.29+1094.67C1494.57+1104.12+1521.22+1104.2+1540.88+1111.26C1540.36+1113.5+1538.11+1114.02+1538.12+1116.79C1514.14+1123.95+1468.24+1105.74+1441.35+1097.44C1457.4+1072.02+1493.3+1066.44+1518.76+1050.44C1503.73+1038.74+1476.67+1039.07+1455.17+1033.85C1457.5+1030.64+1458.82+1026.43+1457.94+1020.02Z" fill-rule="evenodd" fill="#152752" opacity="1"/>
<path d="M1632.12+1061.49C1667.43+1069.51+1700.27+1079.99+1739.95+1083.61C1732.78+1113.28+1732.26+1161.3+1687.42+1144.44C1681.29+1137.67+1676.56+1129.5+1673.6+1119.56C1652.34+1123.19+1638.86+1134.59+1615.53+1136.15C1617.49+1127.04+1619.98+1118.47+1621.06+1108.5C1641.7+1107.94+1653.53+1098.57+1673.6+1097.44C1660.91+1090.77+1644.35+1087.97+1626.59+1086.38C1627.82+1077.47+1631.89+1071.4+1632.12+1061.49ZM1723.36+1105.73C1707.87+1104.63+1698.3+1097.62+1681.89+1097.44C1675.2+1124.98+1723.18+1132.6+1723.36+1105.73Z" fill-rule="evenodd" fill="#152752" opacity="1"/>
<path d="M476.408+1089.14C442.978+1095.34+411.37+1103.37+379.638+1111.26C381.097+1099.66+374.807+1095.82+374.108+1086.38C409.194+1082.75+441.883+1076.74+468.113+1064.26C477.522+1065.91+474.102+1080.39+476.408+1089.14Z" fill-rule="evenodd" fill="#152752" opacity="1"/>
<path d="M396.227+1141.68C404.685+1143.68+404.358+1136.9+412.816+1138.91C378.468+1216.6+525.111+1192.25+481.938+1130.62C466.869+1131.22+461.063+1141.08+445.994+1141.68C447.814+1131.56+440.011+1131.07+440.465+1122.32C487.943+1081.26+523.029+1160.33+492.997+1194.21C459.05+1232.5+384.537+1205.49+396.227+1141.68Z" fill-rule="evenodd" fill="#152752" opacity="1"/>
<path d="M260.748+1122.32C260.046+1131.76+254.834+1136.68+244.159+1136.15C241.458+1133.32+238.693+1130.55+235.864+1127.85C232.621+1108.82+258.669+1106.69+260.748+1122.32Z" fill-rule="evenodd" fill="#152752" opacity="1"/>
<path d="M1455.17+1127.85C1441.89+1127.86+1418.46+1150.65+1441.35+1163.79C1463.05+1156.31+1486.54+1127.61+1513.23+1149.97C1523.35+1166.37+1517.55+1192.99+1502.18+1199.74C1495.61+1198.01+1489.3+1196.02+1488.35+1188.68C1501.18+1189.52+1507.46+1183.83+1507.7+1172.09C1510.62+1161.8+1498.38+1166.67+1496.65+1161.03C1477.21+1164.54+1476.44+1180.88+1460.7+1183.15C1420.93+1188.89+1407.77+1142.02+1435.82+1116.79C1444.89+1117.86+1448.01+1124.88+1455.17+1127.85Z" fill-rule="evenodd" fill="#152752" opacity="1"/>
<path d="M1612.77+1147.21C1644.24+1160.89+1679.63+1170.66+1715.07+1180.38C1716.46+1191.91+1706.99+1192.58+1709.54+1205.27C1672.85+1195.88+1643.32+1179.33+1604.48+1172.09C1607.12+1163.68+1610.06+1155.55+1612.77+1147.21Z" fill-rule="evenodd" fill="#152752" opacity="1"/>
<path d="M257.983+1155.5C304.336+1145.26+342.442+1175.15+332.635+1224.62C318.68+1295.02+197.018+1269.77+216.51+1188.68C220.027+1174.04+234.587+1160.67+257.983+1155.5ZM227.57+1213.56C226.129+1264.59+322.413+1238.4+318.81+1199.74C316.626+1176.29+299.65+1175.01+277.337+1177.62C247.126+1181.16+228.219+1190.53+227.57+1213.56Z" fill-rule="evenodd" fill="#152752" opacity="1"/>
<path d="M1402.64+1183.15C1435.13+1195.82+1458.19+1217.91+1491.12+1230.15C1490.73+1239.91+1483.21+1242.52+1482.82+1252.27C1451.47+1238.46+1426.92+1217.85+1394.35+1205.27C1394.73+1195.51+1402.26+1192.9+1402.64+1183.15Z" fill-rule="evenodd" fill="#152752" opacity="1"/>
<path d="M537.235+1219.09C510.203+1239.06+478.089+1253.95+448.759+1271.62C448.378+1261.87+440.846+1259.26+440.465+1249.51C469.275+1235.92+497.722+1221.97+520.646+1202.5C531.719+1202.49+529.812+1215.46+537.235+1219.09Z" fill-rule="evenodd" fill="#152752" opacity="1"/>
<path d="M1593.42+1202.5C1619.72+1217.67+1651.14+1227.72+1679.13+1241.21C1683.75+1234.78+1686.35+1226.31+1687.42+1216.33C1695.52+1215.61+1695.92+1222.58+1704.01+1221.86C1693.42+1245.37+1681.76+1267.81+1673.6+1293.74C1655.91+1290.58+1666+1275.97+1670.83+1266.1C1646.03+1248.5+1612.2+1239.94+1582.36+1227.39C1587.02+1220.07+1588.75+1209.82+1593.42+1202.5Z" fill-rule="evenodd" fill="#152752" opacity="1"/>
<path d="M1399.88+1238.45C1378.08+1224.94+1365.1+1262.77+1386.05+1268.86C1403.71+1262.62+1416.07+1249.48+1435.82+1255.04C1470.41+1264.76+1454.01+1334.3+1421.99+1307.57C1422.42+1299.61+1442.54+1307.24+1444.11+1293.74C1445.44+1285.05+1440.18+1282.94+1438.58+1277.15C1412.47+1273.77+1408.6+1293.96+1388.82+1290.98C1338.69+1283.42+1380.05+1190.24+1399.88+1238.45Z" fill-rule="evenodd" fill="#152752" opacity="1"/>
<path d="M578.708+1279.92C573.673+1285.55+562.55+1294.92+556.589+1290.98C565.639+1281.62+562.49+1261.89+551.06+1257.8C516.72+1266.84+554.037+1344.13+495.762+1329.69C484.617+1326.93+474.879+1312.45+473.643+1293.74C478.603+1294.09+479.474+1290.36+484.703+1290.98C494.579+1289.49+480.348+1316.21+495.762+1315.86C524.907+1317.88+505.746+1286.13+509.586+1266.1C522.919+1233.51+576.192+1247.61+578.708+1279.92Z" fill-rule="evenodd" fill="#152752" opacity="1"/>
<path d="M1574.06+1271.62C1657.18+1248.88+1672.4+1369.81+1612.77+1384.98C1542.27+1402.93+1502.38+1291.24+1574.06+1271.62ZM1549.18+1315.86C1547.97+1353.52+1606.43+1374.63+1626.59+1360.1C1667.89+1330.34+1595.59+1284.47+1571.3+1290.98C1558.91+1294.3+1549.69+1300.06+1549.18+1315.86Z" fill-rule="evenodd" fill="#152752" opacity="1"/>
<path d="M329.87+1307.57C344.836+1303.18+356.067+1295.06+365.813+1285.45C373.56+1290.6+376.475+1300.6+379.638+1310.33C345.884+1324.5+317.655+1344.2+285.632+1360.1C278.778+1339.62+258.025+1330.74+260.748+1307.57C264.818+1272.96+319.466+1274.96+329.87+1307.57ZM280.102+1332.45C296.271+1330.19+302.995+1318.48+318.81+1315.86C314.218+1289.62+265.556+1307.77+280.102+1332.45Z" fill-rule="evenodd" fill="#152752" opacity="1"/>
<path d="M1280.99+1429.22C1314.74+1449.65+1265.75+1508.68+1247.81+1467.93C1246.71+1455.39+1260.38+1476.43+1267.16+1465.17C1266.37+1422.64+1218.51+1427.18+1181.45+1420.93C1215.28+1382.7+1355.88+1427.19+1361.17+1371.16C1364.84+1332.28+1306.12+1332.56+1314.16+1379.45C1271.32+1353.54+1319.64+1317.21+1350.11+1324.16C1403.82+1336.4+1383.99+1441.62+1297.57+1415.4C1306.72+1420.08+1318.99+1421.63+1322.46+1431.99C1322.17+1443.68+1315.02+1448.51+1305.87+1451.34C1308.96+1432.58+1291.71+1434.16+1280.99+1429.22Z" fill-rule="evenodd" fill="#152752" opacity="1"/>
<path d="M642.3+1396.04C650.988+1372+626.872+1348.91+600.827+1360.1C580.033+1469.24+735.25+1349.74+772.249+1418.16C730.254+1411.42+687.547+1450.36+714.187+1487.28C670.297+1495.68+674.799+1429.4+700.363+1420.93C638.236+1435.76+561.663+1435.6+570.414+1368.4C580.11+1293.92+714.535+1356.31+642.3+1396.04Z" fill-rule="evenodd" fill="#152752" opacity="1"/>
<path d="M426.64+1376.69C391.961+1392.7+368.185+1419.61+335.4+1437.52C328.952+1414.23+305.404+1410.72+307.751+1384.98C310.856+1350.94+362.788+1347.54+374.108+1382.22C393.069+1370.72+417.143+1337.85+426.64+1376.69ZM329.87+1409.87C346.122+1407.69+349.907+1393.04+365.813+1390.51C366.98+1381.05+357.532+1382.21+354.754+1376.69C338.748+1378.79+320.077+1390.97+329.87+1409.87Z" fill-rule="evenodd" fill="#152752" opacity="1"/>
<path d="M1491.12+1379.45C1513.86+1410.17+1527+1450.48+1546.41+1484.52C1543.01+1485.73+1540.73+1488.06+1540.88+1492.81C1503.39+1478.69+1467.44+1463.04+1430.29+1448.58C1434.11+1440.42+1443.06+1437.38+1446.88+1429.22C1456.41+1434.44+1468.19+1437.4+1477.29+1443.05C1483.64+1433.73+1493.24+1427.66+1499.41+1418.16C1494.74+1407.17+1486.37+1399.87+1482.82+1387.75C1486.8+1386.2+1489.57+1383.44+1491.12+1379.45ZM1491.12+1448.58C1502.65+1448.2+1511.75+1464.67+1521.53+1456.87C1513.71+1449.94+1512.76+1436.15+1504.94+1429.22C1502.33+1437.67+1491.49+1437.89+1491.12+1448.58Z" fill-rule="evenodd" fill="#152752" opacity="1"/>
<path d="M1551.94+1387.75C1561.41+1401.38+1542.71+1413.68+1529.82+1404.34C1525.06+1387.37+1540.94+1380.17+1551.94+1387.75Z" fill-rule="evenodd" fill="#152752" opacity="1"/>
<path d="M374.108+1478.99C368.014+1472.18+360.427+1466.86+357.519+1456.87C385.347+1436.77+413.41+1416.91+434.935+1390.51C495.306+1409.26+382.037+1454.64+374.108+1478.99Z" fill-rule="evenodd" fill="#152752" opacity="1"/>
<path d="M462.584+1418.16C478.139+1428.41+486.339+1446.02+504.057+1454.11C484.069+1486.65+450.78+1505.9+429.405+1537.05C420.721+1533.76+420.699+1521.8+410.051+1520.46C431.941+1496.27+454.98+1473.23+479.173+1451.34C474.392+1438.61+457.684+1437.81+454.289+1423.69C459.017+1423.81+461.45+1421.64+462.584+1418.16Z" fill-rule="evenodd" fill="#152752" opacity="1"/>
<path d="M683.773+1429.22C668.838+1436.41+667.875+1457.56+650.595+1462.4C644.006+1443.07+660.067+1427.01+683.773+1429.22Z" fill-rule="evenodd" fill="#152752" opacity="1"/>
<path d="M1435.82+1465.17C1461.06+1483.24+1474.43+1513.19+1499.41+1531.52C1495.74+1540.75+1483.24+1541.15+1480.06+1550.88C1461.51+1538.46+1442.2+1482.3+1413.7+1481.76C1402.81+1481.55+1391.43+1489.88+1388.82+1498.34C1375.94+1540.02+1444.89+1555.92+1433.05+1589.59C1402.1+1579.04+1323.75+1463.78+1435.82+1465.17Z" fill-rule="evenodd" fill="#152752" opacity="1"/>
<path d="M517.881+1470.7C525.706+1474.85+529.659+1482.88+540+1484.52C519.388+1515.52+491.51+1539.25+470.878+1570.23C460.015+1569.11+459.07+1558.08+448.759+1556.41C469.695+1525.73+500.07+1504.5+517.881+1470.7Z" fill-rule="evenodd" fill="#152752" opacity="1"/>
<path d="M551.06+1501.11C561.511+1501.72+564.486+1509.8+573.179+1512.17C565.835+1527.87+555.555+1540.63+545.53+1553.64C553.095+1565.43+568.528+1569.35+578.708+1578.53C592.958+1568.81+598.035+1549.93+609.122+1537.05C616.684+1539.63+620.914+1545.54+628.476+1548.11C611.259+1581.58+587.915+1608.93+570.414+1642.12C562.279+1638.27+559.951+1628.62+548.295+1628.29C557.076+1616.8+564.101+1603.55+573.179+1592.35C563.449+1582.73+549.406+1577.41+540+1567.47C528.943+1576.69+523.765+1591.78+515.116+1603.41C504.704+1602.76+503.41+1593+492.997+1592.35C512.044+1561.63+533.84+1533.65+551.06+1501.11Z" fill-rule="evenodd" fill="#152752" opacity="1"/>
<path d="M1350.11+1520.46C1352.26+1526.61+1355.92+1531.24+1355.64+1539.82C1347.44+1537.87+1343.6+1531.58+1330.75+1534.29C1324.13+1537.81+1319.5+1543.31+1319.69+1553.64C1320.22+1555.88+1322.47+1556.4+1322.46+1559.17C1352.9+1567.57+1393.93+1562.38+1394.35+1597.88C1394.56+1616.16+1379.48+1634.25+1350.11+1633.82C1352.11+1625.37+1345.34+1625.69+1347.34+1617.23C1361.28+1621.83+1378.7+1621.09+1377.76+1603.41C1355.67+1583.04+1291.55+1600.87+1305.87+1545.35C1309.35+1531.84+1327.44+1520.61+1350.11+1520.46Z" fill-rule="evenodd" fill="#152752" opacity="1"/>
<path d="M1327.99+1655.94C1303.35+1657.94+1298.49+1678.12+1275.46+1675.3C1241.56+1671.15+1240.55+1614.6+1278.22+1608.94C1275.85+1590.12+1264.11+1580.66+1258.87+1564.7C1266.89+1562.58+1274.77+1560.33+1278.22+1553.64C1297.93+1584.62+1311.39+1621.85+1327.99+1655.94ZM1297.57+1658.71C1300.88+1646.29+1291.27+1625.05+1280.99+1617.23C1263.93+1627.05+1274.71+1663.13+1297.57+1658.71Z" fill-rule="evenodd" fill="#152752" opacity="1"/>
<path d="M678.244+1573C688.07+1573.31+688.294+1583.22+700.363+1581.29C688.228+1618+668.307+1646.93+656.125+1683.59C640.257+1669.95+604.411+1670.67+600.827+1644.88C596.967+1617.1+631.938+1593.49+658.89+1614.47C667.817+1603.12+673.118+1588.14+678.244+1573ZM639.535+1661.47C641.722+1647.07+652.669+1641.43+653.36+1625.53C630.798+1608.91+611.679+1660.5+639.535+1661.47Z" fill-rule="evenodd" fill="#152752" opacity="1"/>
<path d="M907.728+85.4951C1184.16+67.6949+1405.77+182.631+1549.18+314.979C1692.3+447.06+1814.62+647.292+1825.67+909.427C1837.88+1199.19+1729.24+1398.75+1590.65+1545.35C1515.08+1625.29+1437.07+1682.71+1341.81+1730.59C1241.8+1780.88+1130.12+1806.29+998.969+1821.83C984.68+1823.53+969.014+1828.04+954.731+1827.36C701.471+1815.38+507.455+1721.57+371.343+1595.11C220.774+1455.22+103.297+1268.87+86.5612+1008.96C68.3158+725.596+182.234+508.659+313.281+364.747C414.409+253.691+546.357+165.892+716.952+115.909C777.937+98.0421+844.847+89.5429+907.728+85.4951ZM1612.77+1495.58C1732.88+1349.28+1833.27+1137.48+1806.31+867.954C1782.73+632.141+1670.27+449.352+1527.06+320.509C1386.9+194.409+1183.78+86.9301+921.552+99.3195C672.454+111.09+483.339+219.572+349.224+353.688C214.646+488.265+113.046+675.732+103.15+923.251C93.0695+1175.44+194.007+1383.16+321.575+1520.46C454.341+1663.37+615.34+1770.19+855.195+1796.95C802.638+1774.62+749.989+1765.73+700.362+1749.95C547.614+1701.37+427.566+1619.46+329.87+1512.17C205.896+1376.02+105.088+1170.48+116.975+914.956C128.532+666.541+234.357+490.676+368.578+356.452C506.152+218.878+682.335+123.924+938.141+113.144C1190.34+102.516+1392.1+213.127+1524.29+337.098C1665.87+469.87+1771.84+641.76+1792.49+881.778C1815.05+1144.06+1718.44+1349.43+1598.95+1492.81C1505.81+1604.57+1384.72+1688.38+1239.51+1741.65C1190.9+1759.48+1136.41+1765.29+1087.44+1794.19C1322.13+1753.03+1486.86+1648.94+1612.77+1495.58ZM1748.25+1180.38C1797.54+1011.19+1785.56+819.132+1731.66+668.883C1631.31+389.164+1398.62+184.848+1076.38+135.263C896.171+107.531+707.96+147.79+578.708+215.444C341.706+339.496+126.878+594.03+128.034+953.665C128.772+1183.35+217.738+1361.6+327.105+1490.05C442.375+1625.43+591.626+1717.7+791.603+1761.01C794.705+1760.73+795.908+1765.02+797.133+1761.01C764.134+1735.94+764.543+1677.47+758.425+1625.53C807.46+1618.68+823.51+1550.5+783.309+1520.46C768.091+1512.64+732.866+1524.83+722.481+1512.17C738.202+1454.16+787.76+1429.99+846.901+1415.4C745.187+1389.33+665.92+1340.12+603.592+1268.86C544.299+1201.07+492.27+1107.99+484.702+995.138C472.214+808.893+546.362+681.33+636.77+596.996C717.444+521.742+826.322+467.639+968.555+469.812C1106.02+471.911+1213.12+524.988+1294.81+602.526C1388.27+691.234+1456.09+813.958+1444.11+989.608C1428.64+1216.58+1273.74+1361.35+1068.09+1420.93C1147.87+1416.72+1194.8+1445.36+1209.1+1506.64C1175.39+1516.49+1137.52+1512.45+1126.15+1539.82C1107.41+1584.94+1155.96+1608.75+1162.1+1636.59C1167.26+1660.01+1161.11+1688.59+1156.57+1705.71C1151.31+1725.54+1135.03+1740.89+1137.21+1758.24C1453.2+1673.98+1660.54+1481.44+1748.25+1180.38ZM1433.05+973.019C1441.37+822.765+1377.98+702.291+1294.81+619.115C1211.88+536.183+1085.37+470.722+938.141+480.872C685.197+498.312+494.576+701.575+495.762+953.665C496.224+1052.19+529.886+1133.9+567.649+1194.21C579.128+1212.55+597.907+1249.47+609.122+1246.74C602.497+1208.13+572.957+1181.12+556.589+1147.21C502.016+1034.13+501.966+873.87+556.589+757.359C626.117+609.054+779.194+483.979+996.204+497.461C1222.76+511.534+1401.44+690.936+1416.46+914.956C1421.28+986.774+1410.07+1040.75+1394.35+1089.14C1383.36+1122.93+1362.98+1152.42+1366.7+1180.38C1407.45+1123.52+1428.47+1055.86+1433.05+973.019ZM1405.4+923.251C1390.25+700.978+1227.86+537.383+1015.56+511.285C773.438+481.521+543.304+661.028+526.176+906.662C516.808+1040.98+556.797+1142.54+617.416+1219.09C620.499+1210.19+622.125+1199.84+625.711+1191.44C709.556+1121.38+754.034+1011.95+904.963+1008.96C914.308+970.011+848.427+990.462+841.371+961.959C838.625+950.872+842.529+929.798+866.255+931.546C864.914+944.029+847.219+940.158+852.43+959.194C919.589+1001.03+1023.52+933.058+985.144+851.364C1007.12+859.886+1013.45+830.318+1021.09+815.421C1013.59+813.701+1014.21+803.869+1004.5+804.362C997.655+808.578+1005.08+827.064+993.439+826.481C990.779+819.198+988.094+802.797+993.439+796.067C965.682+782.35+940.727+765.833+935.376+729.71C909.337+724.415+886.701+715.717+869.02+702.061C844.28+724.324+826.775+753.823+833.076+807.126C820.994+825.458+812.904+847.781+808.192+873.483C817.098+879.685+824.621+865.391+838.606+867.954C848.33+861.697+829.711+855.797+838.606+851.364C850.495+860.22+867.538+877.089+866.255+890.073C855.707+889.202+848.728+874.36+838.606+881.778C830.14+913.286+879.258+887.208+882.844+906.662C875.252+913.665+863.54+912.288+852.43+909.427C843.353+913.906+859.849+926.79+846.901+926.016C832.847+920.716+833.425+900.784+824.782+890.073C728.219+892.915+637.456+854.997+628.476+782.243C622.614+734.759+642.875+727.943+656.125+699.297C668.873+671.728+667.718+650.853+703.127+646.764C703.329+633.537+705.06+619.068+714.187+608.056C722.476+598.058+768.431+578.729+777.779+577.642C799.873+575.076+814.261+590.325+833.076+594.231C838.465+589.481+841.451+582.331+849.665+580.407C889.181+592.631+909.26+548.088+940.906+541.699C960.252+537.795+980.856+550.831+1007.26+552.758C1021.99+553.834+1037.69+547.657+1048.74+549.993C1055.29+551.379+1060.52+563.185+1070.86+566.583C1078.99+569.256+1088.54+564.47+1092.97+566.583C1098.45+569.193+1102.06+579.141+1109.56+583.172C1142.73+601+1182.66+603.444+1186.98+641.234C1221.07+653.554+1243.11+688.389+1242.28+726.945C1241.84+747.267+1230.5+759.145+1222.92+776.713C1219.59+784.441+1220.76+793.872+1217.39+801.597C1203.1+834.413+1169.21+842.509+1134.45+843.07C1113.13+859.537+1084.43+868.623+1081.91+903.897C1083.5+910.607+1099.8+902.6+1098.5+912.192C1087+940.753+1122.21+935.37+1112.33+970.254C1192.43+1008.12+1246.51+1072.01+1316.93+1119.56C1324.23+1135.68+1342.65+1154.14+1355.64+1155.5C1384.87+1083.12+1412.16+1022.36+1405.4+923.251ZM904.963+580.407C884.528+583.012+871.671+593.197+849.666+594.231C849.469+604.567+854.109+610.066+860.725+613.586C857.507+587.325+894.537+601.315+902.198+585.937C903.708+599.172+921.237+596.388+927.082+605.291C911.314+621.344+946.92+622.358+929.847+641.234C960.338+633.783+946.124+671.037+954.731+685.472C963.993+684.596+972.161+682.624+976.85+677.178C970.399+676.254+964.936+674.344+963.025+668.883C962.179+662.507+971.013+665.811+971.32+660.588C955.245+659.867+969.763+645.719+971.32+638.469C985.946+653.922+1010.23+643.814+1032.15+649.529C1036.7+644.867+1038.15+637.104+1043.21+632.94C1051.9+639.918+1052.79+654.694+1065.33+657.823C1060.3+645.122+1064.62+647.441+1076.39+649.529C1074.52+632.967+1063.7+625.35+1057.03+613.586C1069.34+607.083+1054.47+603.839+1054.27+594.231C1064.05+591.798+1068.51+601.334+1070.86+591.467C1064.4+590.543+1058.94+588.633+1057.03+583.172C1060.3+581.831+1063.3+580.225+1065.33+577.642C1058.73+573.18+1045.29+575.56+1043.21+566.583C1047.34+566.113+1053.41+567.57+1054.27+563.818C1048.6+559.538+1029.52+559.538+1023.85+563.818C1037.7+583.653+1036.39+653.679+1001.73+630.175C1008.17+612.692+1015.8+597.632+1010.03+574.877C984.663+543.607+926.084+546.698+904.963+580.407ZM786.074+652.294C793.157+655.346+790.426+668.217+802.663+666.118C807.131+652.551+786.87+641.549+805.428+638.469C806.149+630.374+799.176+629.976+799.898+621.88C814.895+622.699+799.096+608.761+810.957+605.291C803.888+598.536+799.851+588.749+791.603+583.172C770.184+586.752+759.688+606.09+761.19+624.645C750.998+623.777+754.687+609.029+750.13+602.526C725.387+603.588+716.778+620.785+711.422+641.234C724.718+643.471+721.409+629.102+736.306+632.94C740.511+640.714+738.938+654.271+741.836+663.353C752.821+666.043+742.972+647.9+752.895+649.529C758.107+659.062+775.495+656.422+777.779+668.883C774.041+683.689+781.553+654.987+786.074+652.294ZM1148.27+682.707C1169.4+682.229+1166.95+665.449+1184.22+666.118C1206.51+666.983+1212.24+699.551+1228.45+713.121C1227.12+660.362+1168.45+628.328+1148.27+682.707ZM985.144+679.942C989.004+700.046+1018.21+694.804+1034.91+702.061C1033.83+685.317+1050.65+686.465+1045.97+666.118C1040.42+656.153+1018.67+655.02+1010.03+663.353C1007.13+671.175+1014.59+682.32+1010.03+682.707C1005.29+679.152+999.157+676.99+998.969+668.883C1000.59+663.129+1004.78+659.947+1007.26+655.059C1002.65+655.059+998.048+655.059+993.439+655.059C999.92+666.461+993.525+675.723+985.144+679.942ZM667.184+699.297C614.527+740.609+641.164+849.556+703.127+851.364C691.764+827.705+663.17+821.28+647.83+801.597C642.386+767.105+645.214+722.676+669.949+718.651C694.241+714.697+717.709+758.368+744.601+738.005C721.633+725.029+684.937+725.781+675.479+699.297C678.487+679.265+694.838+672.574+703.127+657.823C680.544+661.047+665.716+672.024+667.184+699.297ZM904.963+682.707C903.006+692.959+909.685+694.574+907.728+704.826C926.579+714.149+963.49+715.244+949.201+749.064C954.064+755.26+965.785+754.599+971.32+760.124C972.451+766.784+966.271+766.135+968.555+773.948C975.744+775.054+976.894+782.198+985.144+782.243C987.627+777.354+991.819+774.172+993.439+768.418C988.979+764.583+979.186+766.082+976.85+760.124C976.228+750.286+978.713+743.557+985.144+740.77C994.274+751.918+1004.17+762.294+1026.62+760.124C1022.45+778.767+1050.19+771.695+1054.27+773.948C1057.68+782.895+1045.32+776.06+1048.74+785.008C1054.81+791.535+1062.26+799.744+1073.62+793.302C1075.62+784.844+1068.85+785.171+1070.86+776.713C1077.55+773.268+1084.29+769.867+1092.97+768.418C1089.06+751.428+1076.17+737.134+1079.15+721.415C1067.53+718.286+1057.96+713.11+1045.97+710.356C1037.29+716.422+1027.13+721.012+1021.09+729.71C1012.64+727.1+1012.42+716.256+1001.73+715.886C999.588+722.035+1000.14+730.877+993.439+732.475C985.144+732.475+976.85+732.475+968.555+732.475C973.062+717.829+960.194+720.558+954.731+715.886C956.404+709.264+958.707+703.27+957.496+693.767C944.951+684.648+925.089+676.005+904.963+682.707ZM1164.86+829.245C1186.81+822.391+1222.72+800.787+1206.33+773.948C1201.47+801.337+1178.29+810.417+1164.86+829.245ZM1012.79+942.605C1026.92+936.86+1034.21+942.063+1040.44+950.9C1047.44+943.155+1058.33+939.293+1062.56+928.781C1055.7+929.196+1051.09+927.351+1048.74+923.251C1047.03+911.409+1057.74+911.979+1057.03+901.132C1039.47+903.137+1049.86+895.193+1051.5+887.308C1035.83+888.79+1030.07+890.598+1018.32+884.543C1016.82+902.902+1009.96+928.941+1012.79+942.605ZM974.085+961.959C962.909+979.356+924.48+969.496+916.023+989.608C931.008+1019.84+1020.34+989.475+1015.56+967.489C1009.64+957.74+988.194+963.516+974.085+961.959ZM918.787+1014.49C924.19+1032.95+913.302+1037.81+918.787+1053.2C960.042+1068.81+1037.31+1058.1+1051.5+1020.02C1018.39+1029.06+969.979+1043.66+932.612+1031.08C966.575+1021.75+1031.39+1029.2+1045.97+992.373C1040.75+992.066+1044.05+983.232+1037.68+984.078C1011.27+1007.44+965.796+1011.73+918.787+1014.49ZM1095.74+1083.61C1100.89+1107.53+1120.66+1097.07+1134.45+1102.97C1131.97+1089.27+1143.54+1091.59+1151.04+1094.67C1153.04+1086.22+1148.21+1084.6+1148.27+1078.08C1151.84+1074.27+1160.28+1075.35+1167.63+1075.32C1167.63+1066.1+1158.63+1065.88+1159.33+1055.96C1162.1+1055.96+1164.86+1055.96+1167.63+1055.96C1162.05+1040.05+1164.32+1039.35+1167.63+1022.79C1165.13+1017.91+1161.44+1014.22+1156.57+1011.73C1150.85+1050.25+1131.48+1075.12+1095.74+1083.61ZM783.309+1058.73C794.164+1060.78+814.947+1052.9+813.722+1067.02C811.016+1082.16+793.818+1073.12+777.779+1078.08C760.847+1083.32+736.508+1103.98+716.952+1122.32C691.037+1146.63+642.389+1179.61+686.538+1196.97C721.987+1166.75+749.995+1080.28+816.487+1116.79C825.75+1105.2+820.883+1090.15+824.782+1075.32C830.834+1052.3+854.441+1032.6+852.431+1022.79C825.907+1031.28+797.169+1037.57+783.309+1058.73ZM882.844+1100.2C867.803+1124.85+826.128+1126.57+844.136+1163.79C872.423+1173.29+898.419+1185.08+929.847+1191.44C948.015+1148.83+1009.56+1137.81+1004.5+1080.85C991.725+1080.06+1000.68+1100.99+987.909+1100.2C987.909+1091.91+987.909+1083.61+987.909+1075.32C973.043+1076.12+982.612+1101.36+968.555+1102.97C966.871+1096.36+972.025+1082.91+965.79+1080.85C955.721+1091.05+955.201+1110.81+940.906+1116.79C941.907+1101.2+949.829+1092.54+954.731+1080.85C927.906+1079.18+905.367+1105.02+891.139+1125.09C889.881+1105.4+907.28+1104.36+907.728+1086.38C903.73+1079.05+901.551+1096.53+891.139+1091.91C888.966+1084.57+907.045+1076.18+893.904+1075.32C881.674+1079.03+889.214+1089.76+882.844+1100.2ZM1128.92+1116.79C1138.45+1123.85+1139.84+1139.05+1153.8+1141.68C1167.9+1137.34+1176.03+1127.04+1184.22+1116.79C1172.22+1115.88+1175.28+1099.92+1167.63+1094.67C1157.77+1105.1+1142.63+1110.23+1128.92+1116.79ZM1043.21+1114.03C1097.02+1130.26+1111.02+1186.31+1142.74+1224.62C1166.38+1191.11+1221.3+1174.16+1222.92+1127.85C1191.97+1130.64+1181.25+1166.18+1148.27+1174.85C1115.82+1155.98+1090.19+1074.5+1043.21+1114.03ZM1153.8+1166.56C1161.07+1153.56+1177.26+1149.46+1184.22+1136.15C1171.58+1132.62+1164.21+1156.11+1148.27+1158.27C1127.63+1142.95+1115.05+1104.87+1090.21+1102.97C1114.55+1121.02+1127.69+1150.28+1153.8+1166.56ZM689.303+1208.03C678.852+1209.22+675.877+1194.62+667.184+1202.5C670.018+1211.65+674.843+1218.8+686.538+1219.09C726.645+1190.08+733.779+1128.09+794.368+1119.56C742.593+1109.41+721.671+1183.21+689.303+1208.03ZM1139.98+1243.98C1171.22+1218.08+1197.58+1187.3+1228.45+1161.03C1191.32+1176.42+1174.85+1212.5+1142.74+1232.92C1106.35+1197.42+1093.66+1123.48+1032.15+1122.32C1092.39+1138.58+1106.91+1200.55+1139.98+1243.98ZM747.365+1232.92C747.365+1228.31+747.365+1223.7+747.365+1219.09C727.392+1229.53+727.386+1259.94+700.363+1263.33C701.715+1272.06+695.38+1273.09+697.598+1282.68C716.413+1297.97+730.746+1317.74+758.425+1324.16C784.456+1267.95+830.585+1217.81+827.547+1141.68C760.991+1081.14+728.02+1211.14+681.009+1230.15C664.405+1224.64+665.857+1201.07+645.065+1199.74C643.445+1221.08+661.425+1245.78+683.773+1252.27C718.312+1231.97+734.13+1175.78+763.955+1149.97C788.521+1128.71+825.321+1134.51+816.487+1180.38C809.724+1215.51+764.806+1271.05+750.13+1293.74C753.766+1271.55+770.599+1247.89+769.484+1230.15C760.681+1246.23+752.326+1262.76+741.836+1277.15C742.881+1254.21+763.178+1235.87+761.19+1219.09C757.664+1224.79+756.78+1233.12+747.365+1232.92ZM1220.16+1180.38C1189.2+1200.1+1171.95+1234.51+1139.98+1252.27C1098.82+1218.48+1090.31+1123.99+1021.09+1127.85C997.028+1129.19+963.559+1161.1+949.201+1183.15C915.533+1234.85+899.19+1311.72+871.785+1365.63C887.182+1369.96+908.544+1380.7+916.023+1362.87C920.294+1383.47+953.597+1375.06+976.85+1376.69C983.873+1374.5+978.343+1359.75+987.909+1360.1C987.544+1366.92+987.492+1373.42+990.674+1376.69C1005.82+1376.17+1016.89+1371.57+1029.38+1368.4C1037.62+1334.55+1026.66+1297.92+1029.38+1260.57C1021.59+1252.51+1025.93+1268.84+1015.56+1266.1C1015.84+1251.06+1014.62+1237.54+1007.26+1230.15C997.606+1254.6+1000.37+1291.46+990.674+1315.86C975.841+1293.74+1001.27+1251.52+990.674+1224.62C971.621+1243.36+979.662+1289.18+963.025+1310.33C959.918+1291.99+968.633+1262.85+971.32+1241.21C947.362+1255.96+951.916+1299.22+929.847+1315.86C932.869+1289.39+944.896+1271.93+949.201+1246.74C928.133+1246.87+936.991+1276.93+918.787+1279.92C942.471+1229.92+971.464+1127.73+1043.21+1152.74C1095.58+1170.99+1095.76+1250.2+1142.74+1279.92C1190.92+1242.39+1242.96+1193.97+1272.69+1147.21C1259.71+1165.58+1237.93+1169.07+1220.16+1180.38ZM896.668+1216.33C899.35+1258.67+863.122+1279.29+833.076+1252.27C827.35+1227.12+855.441+1204.41+835.841+1191.44C818.721+1207.33+813.426+1250.95+827.547+1274.39C822.882+1289.58+801.07+1280.95+794.368+1274.39C787.287+1293.12+776.402+1308.03+777.779+1335.22C809.077+1364.94+809.42+1310.97+816.487+1290.98C820.441+1301.34+844.282+1285.65+841.371+1307.57C832.673+1308.89+830.563+1303.63+824.782+1302.04C823.936+1310.41+816.227+1311.91+819.252+1324.16C829.952+1319.79+850.614+1319.79+857.96+1326.92C850.708+1315.11+861.673+1319.44+863.49+1310.33C864.25+1299.43+851.67+1301.88+852.431+1290.98C863.548+1292.88+868.212+1288.33+877.314+1288.21C881.111+1281.91+870.187+1277.82+877.314+1277.15C921.406+1271.7+943.815+1193.05+888.374+1185.91C879.338+1200.74+893.998+1205.19+896.668+1216.33ZM1057.03+1362.87C1085.51+1369.26+1109.61+1349.73+1131.68+1340.75C1135.56+1327.51+1124.68+1314.76+1131.68+1307.57C1140.97+1312.11+1133.71+1333.19+1148.27+1332.45C1165.91+1325.33+1197.17+1311.37+1178.69+1285.45C1160.59+1279.43+1153.91+1298.58+1134.45+1299.27C1104+1280.88+1104.15+1231.88+1065.33+1221.86C1056.12+1262.43+1057.04+1313.11+1057.03+1362.87ZM846.901+1362.87C869.23+1371.54+878.351+1330.55+877.314+1315.86C873.629+1315.86+869.94+1315.86+866.255+1315.86C863.352+1335.08+852.71+1346.56+846.901+1362.87ZM819.252+1332.45C812.771+1343.9+816.371+1365.74+835.841+1360.1C847.125+1352.78+846.771+1342.34+841.371+1329.69C833.406+1330.02+823.272+1328.18+819.252+1332.45ZM927.082+1431.99C946.126+1435.06+952.84+1450.47+968.555+1456.87C984.73+1442.63+1008.08+1435.57+1029.38+1426.46C995.985+1432.68+957.07+1428.56+927.082+1431.99ZM1123.39+1633.82C1114.35+1628.28+1104.12+1626.3+1098.5+1636.59C1101.62+1647.3+1123.82+1638.92+1117.86+1658.71C1088.12+1660.56+1076.68+1691.45+1045.97+1683.59C1045.55+1696.19+1043.68+1694.44+1045.97+1705.71C1075.64+1705.39+1098.97+1748.14+1068.09+1747.18C1080.83+1768.28+1054.15+1773.74+1048.74+1785.89C1113.98+1767.27+1144.28+1713.71+1142.74+1628.29C1078.02+1599.67+1094.48+1475.29+1184.22+1487.28C1159.04+1406.68+1011.55+1421.24+968.555+1476.23C994.174+1478.8+991.526+1453.12+1012.79+1451.34C1016.47+1454.12+1023.08+1453.95+1023.85+1459.64C1020.65+1469.34+1015.99+1477.58+1012.79+1487.28C1020.5+1489.72+1029.62+1490.74+1034.91+1495.58C1029.15+1509.17+1006.58+1505.96+1004.5+1523.23C1026.61+1545.2+1001.32+1564.18+1007.26+1589.59C1000.85+1596.99+986.087+1596.06+985.144+1608.94C1014.74+1625.12+1028.56+1669.75+1070.86+1664.24C1074.5+1655.9+1079.79+1649.2+1079.15+1636.59C1054.99+1608.42+1024.2+1582.38+1037.68+1542.58C1044.88+1521.33+1076.28+1515.86+1079.15+1498.34C1082.63+1477.07+1068.04+1468.94+1054.27+1462.4C1046.45+1465.75+1037.84+1482.7+1032.15+1478.99C1037.29+1411.62+1137.15+1490.72+1076.39+1523.23C1105.04+1527.81+1103.96+1576.91+1076.39+1581.29C1074.38+1575+1060.62+1580.47+1062.56+1570.23C1065.94+1561.8+1073.11+1574.27+1076.39+1567.47C1076.39+1561.02+1076.39+1554.56+1076.39+1548.11C1068.44+1544.83+1061.71+1542.32+1054.27+1545.35C1041.37+1563.6+1051.86+1594.41+1068.09+1600.64C1068.48+1588.08+1105.57+1570.57+1104.03+1597.88C1097.54+1597+1093.66+1593.51+1084.68+1595.11C1085.43+1606.58+1081.05+1605.89+1084.68+1614.47C1100.7+1607.68+1130.81+1602.8+1123.39+1633.82ZM728.011+1506.64C816.446+1449.68+885.189+1600.99+791.603+1628.29C787.464+1701.55+802.829+1755.31+852.431+1774.83C853.849+1763.27+839.743+1767.24+835.841+1761.01C850.423+1748.7+874.798+1753.67+893.904+1758.24C915.246+1748.42+908.859+1714.24+907.728+1691.89C898.374+1683.63+893.199+1702.86+885.609+1694.65C906.199+1675.27+948.078+1689.41+965.79+1664.24C973.817+1666.35+972.962+1677.34+985.144+1675.3C985.258+1653.98+961.848+1656.2+946.436+1650.41C938.612+1654.57+934.658+1662.59+924.317+1664.24C870.034+1656.04+857.197+1689.28+824.782+1702.94C828.337+1694.14+833.538+1681.42+824.782+1675.3C812.464+1673.24+805.007+1690.38+799.898+1686.36C799.898+1679.91+799.898+1673.45+799.898+1667C807.532+1663.58+821.68+1666.66+822.017+1655.94C812.343+1652.06+804.319+1663.7+799.898+1655.94C803.08+1649.91+800.445+1638.06+808.193+1636.59C825.188+1638.95+831.182+1652.31+846.901+1655.94C853.913+1637.01+877.35+1636.82+880.079+1620C883.046+1601.71+856.293+1585.52+849.666+1559.17C844.835+1539.97+852.624+1528.22+844.136+1512.17C836.121+1509.12+825.437+1508.75+824.782+1498.34C836.953+1483.72+844.667+1507.74+855.195+1501.11C859.55+1482.93+847.222+1481.43+844.136+1470.7C864.635+1468.63+867.552+1484.15+871.785+1498.34C884.473+1496.87+882.192+1486.56+880.079+1476.23C886.958+1480.41+892.72+1485.7+893.904+1495.58C868.87+1517.47+886.61+1556.13+910.493+1567.47C918.743+1567.42+919.893+1560.28+927.082+1559.17C933.779+1564.83+941.274+1575.26+949.201+1564.7C950.299+1547.01+928.871+1551.85+913.258+1550.88C911.134+1543.95+897.993+1530.69+910.493+1525.99C917.214+1534.85+945.023+1557.74+951.966+1539.82C944.808+1530.39+921.956+1536.65+924.317+1517.7C930.969+1509.6+940.293+1504.18+951.966+1501.11C953.534+1483.76+945.15+1473.64+960.261+1470.7C897.13+1411.85+763.833+1439.17+728.011+1506.64ZM940.906+1523.23C958.557+1525.16+973.388+1552.33+993.439+1534.29C989.419+1530.01+979.283+1531.85+971.32+1531.52C968.395+1515.81+949.234+1504.3+940.906+1523.23ZM855.195+1531.52C861.646+1531.52+868.099+1531.52+874.549+1531.52C874.549+1525.99+874.549+1520.46+874.549+1514.93C866.255+1514.93+857.96+1514.93+849.666+1514.93C850.575+1521.4+852.989+1526.36+855.195+1531.52ZM880.079+1586.82C887.008+1581.77+898.289+1581.07+902.198+1573C896.174+1564.28+877.386+1568.32+863.49+1567.47C865.578+1577.36+869.885+1585.03+880.079+1586.82ZM891.139+1592.35C915.674+1592.77+946.254+1603.52+971.32+1592.35C969.103+1582.76+975.437+1581.72+974.085+1573C952.939+1580.87+915.204+1575.01+891.139+1592.35ZM874.549+1644.88C894.282+1648.86+918.353+1645.84+924.317+1628.29C903.047+1629.14+875.288+1623.5+874.549+1644.88ZM943.671+1631.06C947.802+1650.6+996.737+1649.55+1010.03+1642.12C998.828+1627.65+966.705+1625.16+943.671+1631.06ZM913.258+1722.3C917.715+1727.98+927.121+1728.71+938.142+1727.83C942.079+1710.57+957.819+1705.11+965.79+1691.89C934.608+1688.35+912.445+1693.84+913.258+1722.3ZM1001.73+1697.42C1005.25+1718.78+1021.78+1727.13+1048.74+1725.06C1045.92+1712.21+1031.94+1710.52+1032.15+1694.65C1021.99+1695.55+1007.67+1692.29+1001.73+1697.42ZM985.144+1697.42C971.491+1704.96+956.622+1711.29+949.201+1725.06C973.618+1758.37+917.455+1773.86+902.198+1794.19C922.824+1798.44+940.776+1805.37+965.79+1805.25C962.436+1790.83+977.184+1794.52+987.909+1794.19C988.775+1776.73+961.319+1787.59+957.496+1774.83C967.59+1764.95+979.493+1773.71+996.204+1772.07C998.631+1776.95+1004.97+1780.14+998.969+1785.89C1010.59+1782.77+1015.38+1772.8+1026.62+1769.3C1030.22+1746.3+1021.06+1721.47+1004.5+1727.83C1010.21+1733.72+999.428+1746.58+990.674+1747.18C996.881+1731.64+999.217+1706.29+985.144+1697.42ZM902.198+1758.24C902.198+1761.93+902.198+1765.62+902.198+1769.3C913.316+1775.1+926.125+1770.47+927.082+1758.24C922.6+1754.09+906.68+1754.09+902.198+1758.24ZM1021.09+1783.13C1038.6+1786.17+1046.11+1783.49+1048.74+1766.54C1032.16+1764.71+1025.15+1772.44+1021.09+1783.13Z" fill-rule="evenodd" fill="#152752" opacity="1"/>
</g>
</g>
</svg>
