<?xml version="1.0" encoding="UTF-8" standalone="no"?> <!-- Created with Vectornator for iOS (http://vectornator.io/) --><!DOCTYPE svg PUBLIC "-//W3C//DTD SVG 1.1//EN" "http://www.w3.org/Graphics/SVG/1.1/DTD/svg11.dtd">
<svg height="100%" style="fill-rule:nonzero;clip-rule:evenodd;stroke-linecap:round;stroke-linejoin:round;" xmlns:xlink="http://www.w3.org/1999/xlink" xmlns="http://www.w3.org/2000/svg" xml:space="preserve" width="100%" xmlns:vectornator="http://vectornator.io" version="1.1" viewBox="0 0 652 652">
<metadata>
<vectornator:setting key="DimensionsVisible" value="1"/>
<vectornator:setting key="PencilOnly" value="0"/>
<vectornator:setting key="SnapToPoints" value="0"/>
<vectornator:setting key="OutlineMode" value="0"/>
<vectornator:setting key="CMYKEnabledKey" value="0"/>
<vectornator:setting key="RulersVisible" value="1"/>
<vectornator:setting key="SnapToEdges" value="0"/>
<vectornator:setting key="GuidesVisible" value="1"/>
<vectornator:setting key="DisplayWhiteBackground" value="0"/>
<vectornator:setting key="doHistoryDisabled" value="0"/>
<vectornator:setting key="SnapToGuides" value="1"/>
<vectornator:setting key="TimeLapseWatermarkDisabled" value="0"/>
<vectornator:setting key="Units" value="Points"/>
<vectornator:setting key="DynamicGuides" value="0"/>
<vectornator:setting key="IsolateActiveLayer" value="0"/>
<vectornator:setting key="SnapToGrid" value="0"/>
</metadata>
<defs/>
<g id="Untitled" vectornator:layerName="Untitled">
<path d="M77.3301+442.425L5.17696+246.606L48.6124+246.606L104.971+397.913L159.534+246.606L188.252+246.606L118.432+442.425L77.3301+442.425ZM212.124+246.606L252.687+246.606L252.687+366.862C252.687+388.579+256.277+402.579+263.815+410.297C271.354+417.297+280.866+420.887+292.533+420.887C304.2+420.887+312.994+417.297+320.174+410.297C327.174+403.297+330.225+389.836+330.225+369.913L330.225+246.786L365.404+246.786L365.404+367.041C365.404+389.836+362.532+405.81+356.609+415.682C350.686+425.733+342.609+433.271+332.02+439.194C321.43+445.117+307.43+447.451+290.918+447.451C274.584+447.451+260.944+445.117+249.277+439.912C237.61+434.707+228.098+426.989+221.636+416.4C214.636+405.81+211.585+389.477+211.585+367.221L211.585+246.965L212.124+246.965L212.124+246.606Z" opacity="1" fill="#000000"/>
<path d="M447.249+336.888C447.249+336.349+447.788+335.093+449.044+335.093C449.583+335.093+450.839+335.631+450.839+336.888C450.839+337.426+450.301+338.682+449.044+338.682C447.788+338.682+447.249+337.964+447.249+336.888M543.992+384.272C541.659+377.81+535.197+373.682+526.941+374.221C522.274+365.426+514.556+369.554+512.223+371.887C514.556+374.221+516.351+374.759+519.223+375.477L519.223+377.272C514.018+377.272+512.223+374.938+508.633+370.81C506.838+383.733+522.095+388.4+526.761+377.81C533.761+377.81+538.428+380.682+539.684+385.349C541.479+390.015+539.684+394.682+537.351+397.015C533.223+402.22+526.223+402.22+519.761+398.81C515.633+397.015+511.505+392.887+508.095+388.759C502.89+382.836+499.839+379.964+495.71+378.169C493.377+376.913+491.044+376.374+489.249+376.374C487.993+376.374+486.916+375.836+485.121+375.836C483.864+375.836+482.787+375.836+481.531+376.374C472.198+377.631+462.685+381.579+451.557+382.836L446.172+382.836C442.583+386.426+439.172+389.297+436.121+391.631L429.121+397.554L429.121+397.554C426.25+400.425+424.455+401.682+424.455+401.682C424.993+408.143+425.711+411.733+425.711+417.476C425.711+422.682+425.711+425.015+425.711+426.81C425.711+429.143+425.173+430.938+424.455+432.733C423.737+434.528+422.66+435.604+420.327+435.604C418.532+436.143+413.865+432.733+412.07+435.066C410.814+436.861+412.07+440.989+413.865+442.066L426.788+442.066C428.583+439.194+429.121+436.861+429.66+435.066C430.916+433.271+431.455+430.938+432.532+429.861C433.788+428.066+434.326+426.271+434.865+424.656C434.865+422.861+435.403+421.784+436.121+420.528C437.378+418.194+438.455+415.861+438.993+414.605C438.993+414.066+439.531+414.066+439.531+413.348C440.07+413.887+440.788+415.143+440.788+415.682C443.66+420.348+446.711+423.938+450.839+425.733C452.634+426.271+453.711+427.528+454.429+428.066C454.967+428.605+454.967+430.399+454.967+432.194C454.967+433.989+454.429+435.784+452.634+436.322C449.762+437.579+445.634+433.451+443.839+435.784C442.044+437.579+443.839+440.451+445.634+442.784L457.301+442.784C460.172+438.117+461.429+432.194+461.429+426.989C461.429+421.784+461.429+420.528+457.839+418.733C456.583+418.194+455.506+415.143+454.967+412.81C454.967+412.271+454.967+412.271+454.967+411.015C460.172+409.22+466.634+405.81+473.095+400.964C473.095+402.22+473.095+402.759+473.095+403.836C474.352+411.374+474.89+417.835+480.634+423.22C482.428+425.015+483.505+426.092+483.505+427.348C483.505+427.887+482.967+430.22+481.711+431.476C480.454+434.348+477.582+436.681+475.249+436.681C472.377+437.22+469.326+433.092+466.993+435.425C465.198+437.22+467.531+441.348+468.788+442.425L480.454+442.425C484.582+435.425+489.787+429.502+491.582+425.374C492.839+422.502+492.839+421.246+490.326+420.707C486.198+418.374+486.736+413.707+487.993+408.323C487.993+407.066+488.531+406.528+489.249+405.451C492.121+413.707+496.249+421.246+505.044+423.579C506.838+423.579+508.633+424.835+509.172+425.374C509.172+425.912+509.172+427.707+509.172+428.964C508.633+431.297+507.377+434.887+505.044+435.963C502.71+437.758+497.505+431.835+495.71+435.425C494.454+437.758+496.967+441.348+497.505+442.425L509.172+442.425C512.044+435.425+515.095+428.964+516.172+424.297C516.71+419.092+516.71+416.759+512.582+416.041C510.249+416.041+508.454+414.784+507.915+411.912C506.121+406.707+506.659+397.195+502.71+391.451C507.377+396.656+512.044+400.784+516.71+403.118C526.761+408.323+537.171+406.707+541.838+399.528C545.248+394.323+545.248+388.4+543.992+384.272M643.068+247.683C634.273+246.427+614.35+248.94+596.761+252.35C607.35+247.145+610.76+245.889+614.35+243.555C615.607+243.017+616.145+241.222+616.145+238.889C616.145+236.555+613.812+236.017+610.94+236.555C608.068+236.555+602.145+238.889+594.607+241.222C579.889+247.145+558.889+257.017+533.582+274.068C511.326+289.324+496.608+302.247+480.813+318.042C476.685+322.17+472.018+327.375+466.813+333.298C466.275+332.041+465.557+331.503+463.941+332.041C469.864+319.119+470.403+318.58+473.275+311.58C474.531+307.99+473.813+305.657+472.736+304.042C470.941+301.17+468.608+302.785+466.813+304.042C464.48+306.914+463.941+307.631+458.557+314.093C465.018+292.375+468.608+290.58+474.352+278.375C474.89+276.581+474.89+274.247+474.352+272.452C473.813+270.657+472.557+270.119+471.48+270.657C469.147+271.914+468.608+272.991+463.941+278.196C470.403+265.811+479.198+251.273+480.275+248.94C481.531+246.606+482.608+246.068+480.275+241.94C477.941+238.35+476.146+241.401+474.352+242.478C473.095+243.017+470.223+246.068+466.095+251.273C475.429+233.684+484.223+225.427+486.018+222.555C488.351+218.966+488.351+218.427+486.557+214.299C484.762+210.709+481.89+212.504+480.634+214.299C474.172+220.761+474.172+218.966+463.044+232.427C468.967+217.171+478.839+205.504+482.428+199.581C484.223+197.248+484.223+195.992+482.428+190.787C481.89+188.453+479.557+187.197+477.223+187.197C474.352+188.453+471.3+190.069+465.557+195.453C453.172+206.581+436.839+222.376+423.378+251.094C410.455+278.016+407.583+303.324+407.583+320.913C407.583+347.836+414.583+371.349+421.044+386.605C421.044+386.067+421.044+385.349+421.044+384.81C420.506+377.81+421.583+369.015+423.378+364.887C426.25+354.298+429.839+348.554+432.711+343.708L427.506+336.708L434.506+339.041L430.378+329.708C430.378+329.708+435.583+330.247+439.711+335.631C442.044+333.298+447.249+331.503+452.095+335.093C455.685+335.093+457.301+335.631+459.095+336.349C462.685+338.682+461.967+342.272+461.967+343.349C460.172+341.554+454.429+338.144+449.044+342.811L459.634+346.4L446.172+347.657L446.172+361.657L429.839+376.374L429.839+381.579L440.967+371.528L440.967+376.733L421.583+394.323L421.583+399.528L446.172+377.272L446.172+377.272L452.634+372.067L452.634+372.067C456.224+369.195+457.839+367.4+460.172+366.144C462.506+364.349+463.044+366.144+463.762+369.015C464.3+371.349+467.352+373.682+473.095+368.477C490.146+352.682+508.274+344.426+527.659+335.093C517.069+342.093+498.403+352.682+491.941+359.682C489.069+363.272+491.941+370.81+496.608+367.221C504.864+362.016+515.454+360.759+521.197+361.298C523.531+361.298+526.402+359.503+528.197+357.169C529.992+355.375+529.992+353.041+526.402+353.041C543.992+347.836+548.659+346.041+563.376+344.785C567.505+344.785+569.838+342.452+570.376+338.862C570.915+335.99+569.838+334.734+565.71+334.734C561.581+334.195+554.043+335.272+546.325+336.529C563.376+329.529+583.838+325.401+600.171+320.734C605.376+318.939+606.094+317.862+606.094+314.811C606.632+311.221+604.299+311.221+598.555+311.221C586.889+311.76+569.299+313.016+542.197+320.554C567.325+307.631+582.043+301.708+604.837+295.965C611.299+294.17+611.837+292.375+612.376+289.503C613.632+285.914+610.581+285.914+608.248+285.914C604.658+285.914+597.12+285.914+581.325+290.58C596.581+284.119+613.632+275.863+625.299+272.452C627.632+271.196+629.427+270.119+629.427+267.247C629.427+264.914+628.888+264.914+626.555+264.914C621.35+264.914+613.094+266.709+603.043+269.581C623.504+260.786+629.965+257.914+644.145+255.581C648.811+254.324+649.35+253.247+650.068+250.376C648.452+247.683+645.94+247.683+643.068+247.683M437.378+318.042C437.378+316.247+436.121+315.17+435.044+314.452C437.916+306.914+440.967+301.529+446.711+293.273C441.506+304.042+438.993+313.375+437.378+318.042M418.532+311.58C422.66+267.606+442.583+235.299+456.044+220.043C436.66+249.478+425.532+290.042+418.532+311.58M491.762+324.503C517.608+299.914+552.787+274.068+597.299+263.478C559.787+276.401+508.274+311.58+491.762+324.503" opacity="1" fill="#0089cf"/>
</g>
</svg>
